<svg width="45" height="64" viewBox="0 0 45 64" fill="none" xmlns="http://www.w3.org/2000/svg">
<g clip-path="url(#clip0_69_887)">
<path d="M32.97 43.7252C38.39 37.4752 44.02 29.1952 44.02 21.7252C43.7809 16.1835 41.4113 10.9482 37.4054 7.11139C33.3995 3.27462 28.0669 1.13281 22.52 1.13281C16.9732 1.13281 11.6405 3.27462 7.63464 7.11139C3.62878 10.9482 1.25911 16.1835 1.02002 21.7252C1.02002 29.1752 6.67002 37.4652 12.1 43.7252C7.01002 45.7252 4.01002 49.0852 4.01002 52.7852C4.01002 58.9252 12.17 63.7252 22.59 63.7252C33.01 63.7252 41.13 58.9952 41.13 52.8152C41.12 49.0952 38.09 45.7452 32.97 43.7252ZM22.5 2.16524C27.694 2.17053 32.6737 4.23617 36.3464 7.90886C40.0191 11.5816 42.0847 16.5613 42.09 21.7552C42.09 33.5752 25.89 48.5252 22.5 51.5252C19.1 48.5252 2.90002 33.5252 2.90002 21.7552C2.9106 16.5612 4.97931 11.583 8.65302 7.91116C12.3267 4.23933 17.3059 2.17316 22.5 2.16524ZM16.9 48.9252C19.6 51.6052 21.63 53.3352 21.9 53.5452C22.0766 53.6847 22.295 53.7606 22.52 53.7606C22.745 53.7606 22.9635 53.6847 23.14 53.5452C23.4 53.3252 25.44 51.5952 28.14 48.8952C30.5 49.8352 31.96 51.3152 31.96 52.8052C31.96 55.4652 27.65 57.7152 22.56 57.7152C17.47 57.7152 13.16 55.4652 13.16 52.8052C13.14 51.3152 14.5 49.8752 16.9 48.9252ZM22.5 61.8252C13.5 61.8252 5.85002 57.6952 5.85002 52.8252C5.85002 49.8252 8.73002 46.9852 13.39 45.3152C14.08 46.0752 14.76 46.7952 15.39 47.4752C12.72 48.7552 11.15 50.7052 11.15 52.8252C11.15 56.6552 16.15 59.6652 22.48 59.6652C28.81 59.6652 33.81 56.6652 33.81 52.8252C33.81 50.6752 32.22 48.7252 29.51 47.4452C30.16 46.7652 30.84 46.0452 31.51 45.2852C36.2 46.9652 39.11 49.8352 39.11 52.8252C39.19 57.6952 31.57 61.8252 22.5 61.8252Z" fill="#C6AC73"/>
<path d="M35.5 21.7549C35.5 19.1837 34.7376 16.6703 33.3091 14.5325C31.8807 12.3946 29.8503 10.7284 27.4749 9.74445C25.0995 8.76052 22.4856 8.50307 19.9638 9.00468C17.4421 9.50629 15.1257 10.7444 13.3076 12.5625C11.4895 14.3806 10.2514 16.697 9.7498 19.2187C9.24819 21.7405 9.50563 24.3543 10.4896 26.7298C11.4735 29.1052 13.1398 31.1355 15.2776 32.564C17.4154 33.9925 19.9288 34.7549 22.5 34.7549C24.2072 34.7549 25.8977 34.4186 27.4749 33.7653C29.0521 33.112 30.4852 32.1544 31.6924 30.9473C32.8996 29.7401 33.8571 28.307 34.5104 26.7298C35.1637 25.1525 35.5 23.4621 35.5 21.7549ZM11.44 21.7549C11.44 19.565 12.0895 17.4244 13.3063 15.6037C14.5232 13.783 16.2527 12.3642 18.276 11.5266C20.2994 10.689 22.5257 10.4704 24.6733 10.8983C26.821 11.3263 28.7934 12.3816 30.3412 13.9308C31.889 15.4799 32.9425 17.4533 33.3685 19.6014C33.7945 21.7494 33.5739 23.9755 32.7345 25.9981C31.8951 28.0207 30.4747 29.7489 28.6529 30.9641C26.8311 32.1793 24.6899 32.8269 22.5 32.8249C19.5666 32.8196 16.755 31.6513 14.6817 29.5761C12.6084 27.5009 11.4426 24.6883 11.44 21.7549Z" fill="#C6AC73"/>
</g>
<defs>
<clipPath id="clip0_69_887">
<rect width="43.04" height="63.51" fill="white" transform="translate(0.97998 0.245117)"/>
</clipPath>
</defs>
</svg>
