<svg width="48" height="62" viewBox="0 0 48 62" fill="none" xmlns="http://www.w3.org/2000/svg">
<g clip-path="url(#clip0_62_109)">
<path d="M20.0048 33.4668C19.865 33.4668 19.7281 33.4269 19.6102 33.3517C19.4924 33.2765 19.3985 33.1692 19.3395 33.0425L13.7006 20.9269C10.7105 14.4972 10.3969 7.14301 12.8286 0.482014C12.8802 0.348549 12.9696 0.233053 13.0858 0.149735C13.2021 0.0664172 13.3403 0.0189121 13.4832 0.0130646C13.6261 0.00721701 13.7677 0.0432821 13.8904 0.116822C14.0131 0.190363 14.1116 0.298171 14.1739 0.426982L24.8659 23.3985C24.9066 23.4858 24.9297 23.5804 24.9339 23.6766C24.9381 23.7729 24.9233 23.8691 24.8903 23.9597C24.8573 24.0502 24.8068 24.1334 24.7417 24.2045C24.6765 24.2755 24.598 24.333 24.5107 24.3737C24.4233 24.4145 24.3288 24.4376 24.2325 24.4417C24.1362 24.4459 24.04 24.4311 23.9494 24.3981C23.8589 24.3651 23.7757 24.3146 23.7047 24.2495C23.6336 24.1843 23.5761 24.1059 23.5354 24.0185L13.6297 2.73954C11.9558 8.57231 12.4533 14.8141 15.0299 20.3081L20.6676 32.4224C20.7088 32.5099 20.7324 32.6047 20.7369 32.7013C20.7413 32.7979 20.7267 32.8944 20.6937 32.9854C20.6608 33.0763 20.6102 33.1598 20.5448 33.2311C20.4795 33.3024 20.4007 33.3601 20.313 33.4008C20.2163 33.4468 20.1106 33.4707 20.0036 33.4705L20.0048 33.4668Z" fill="#C6AC73"/>
<path d="M34.4011 46.3502C34.2613 46.3502 34.1244 46.3102 34.0066 46.235C33.8887 46.1598 33.7948 46.0526 33.7358 45.9258L27.7435 33.0423C27.6613 32.8658 27.6525 32.6639 27.7191 32.481C27.7858 32.2981 27.9223 32.1492 28.0987 32.067C28.2752 31.9848 28.4771 31.976 28.66 32.0426C28.8429 32.1092 28.9918 32.2458 29.074 32.4222L35.0664 45.3058C35.1076 45.3933 35.131 45.4882 35.1354 45.5848C35.1398 45.6815 35.1251 45.7781 35.092 45.869C35.0589 45.9599 35.0082 46.0434 34.9427 46.1147C34.8772 46.1859 34.7983 46.2435 34.7105 46.2841C34.6136 46.3289 34.5079 46.3515 34.4011 46.3502Z" fill="#C6AC73"/>
<path d="M30.3886 55.7765C30.2489 55.7766 30.1122 55.7369 29.9943 55.6619C29.8765 55.5869 29.7825 55.4799 29.7233 55.3534L23.539 42.0651C23.4969 41.9775 23.4727 41.8825 23.4677 41.7855C23.4626 41.6885 23.4769 41.5915 23.5096 41.5C23.5424 41.4086 23.593 41.3246 23.6584 41.2528C23.7239 41.1811 23.8029 41.1231 23.891 41.0821C23.9791 41.0411 24.0744 41.0181 24.1714 41.0142C24.2685 41.0104 24.3653 41.0259 24.4563 41.0597C24.5474 41.0936 24.6308 41.1452 24.7017 41.2116C24.7726 41.2779 24.8297 41.3577 24.8695 41.4463L31.0502 54.7334C31.1022 54.8452 31.1252 54.9683 31.117 55.0913C31.1089 55.2143 31.0698 55.3333 31.0035 55.4373C30.9372 55.5413 30.8458 55.6268 30.7377 55.6861C30.6296 55.7454 30.5082 55.7765 30.3849 55.7765H30.3886Z" fill="#C6AC73"/>
<path d="M38.6323 58.1917C37.6811 58.1933 36.7469 57.9391 35.9276 57.4556C35.1084 56.9722 34.4342 56.2773 33.9758 55.4438C33.5174 54.6103 33.2916 53.6688 33.3221 52.718C33.3525 51.7673 33.6381 50.8422 34.1489 50.0397C34.6597 49.2372 35.377 48.5869 36.2255 48.1569C37.074 47.7269 38.0225 47.5329 38.9717 47.5955C39.9209 47.658 40.8358 47.9746 41.6206 48.5122C42.4054 49.0498 43.0311 49.7886 43.4323 50.6511C43.8086 51.4585 43.9753 52.3478 43.9171 53.2367C43.8588 54.1257 43.5776 54.9856 43.0992 55.7371C42.6208 56.4886 41.9608 57.1074 41.1801 57.5364C40.3994 57.9654 39.5231 58.1908 38.6323 58.1917ZM38.6176 49.0539C37.7881 49.0556 36.9815 49.3261 36.3188 49.825C35.656 50.3239 35.1729 51.0242 34.9419 51.8209C34.7108 52.6176 34.7443 53.4677 35.0373 54.2437C35.3304 55.0198 35.8671 55.6799 36.567 56.1251C37.267 56.5702 38.0924 56.7765 38.9195 56.7128C39.7465 56.6492 40.5307 56.3191 41.1543 55.7721C41.7779 55.225 42.2073 54.4906 42.3781 53.6788C42.5489 52.8671 42.452 52.0218 42.1018 51.2699C41.7926 50.6068 41.3004 50.0458 40.6831 49.6531C40.0659 49.2603 39.3493 49.052 38.6176 49.0527V49.0539Z" fill="#C6AC73"/>
<path d="M38.6409 61.9999C37.007 62.0024 35.4026 61.5654 33.9956 60.7348C32.5887 59.9042 31.431 58.7106 30.6438 57.2789C29.8566 55.8472 29.4688 54.2302 29.5212 52.5972C29.5735 50.9642 30.064 49.3754 30.9413 47.9971C31.8186 46.6187 33.0504 45.5017 34.5076 44.7629C35.9649 44.0241 37.594 43.6908 39.2243 43.7979C40.8546 43.905 42.4262 44.4485 43.7743 45.3715C45.1224 46.2945 46.1976 47.563 46.8871 49.0442C47.5332 50.4315 47.8194 51.9593 47.7193 53.4864C47.6192 55.0135 47.1359 56.4907 46.3142 57.7818C45.4924 59.0728 44.3587 60.136 43.0176 60.8733C41.6765 61.6105 40.1712 61.998 38.6409 61.9999ZM38.6152 45.2458C36.9619 45.2483 35.354 45.7869 34.0327 46.7806C32.7114 47.7743 31.748 49.1696 31.2869 50.7573C30.8257 52.3449 30.8918 54.0393 31.4752 55.5862C32.0586 57.1331 33.1278 58.4492 34.5225 59.337C35.9172 60.2247 37.5621 60.6364 39.2106 60.5101C40.859 60.3838 42.4221 59.7265 43.6653 58.6366C44.9085 57.5468 45.7648 56.0833 46.1058 54.4656C46.4468 52.8478 46.2541 51.1632 45.5565 49.6643C44.9463 48.3387 43.9671 47.2171 42.7361 46.4335C41.5051 45.6499 40.0744 45.2376 38.6152 45.2458Z" fill="#C6AC73"/>
<path d="M18.0199 55.7788C17.8965 55.7789 17.775 55.7479 17.6667 55.6885C17.5584 55.6292 17.4669 55.5434 17.4006 55.4393C17.3342 55.3352 17.2953 55.216 17.2872 55.0928C17.2792 54.9696 17.3024 54.8463 17.3547 54.7345L33.375 20.309C35.9517 14.8132 36.4483 8.56959 34.7728 2.73557L14.6728 45.9269C14.5892 46.1009 14.4405 46.235 14.2587 46.3001C14.077 46.3652 13.877 46.356 13.7019 46.2746C13.5269 46.1932 13.391 46.0461 13.3237 45.8652C13.2563 45.6843 13.263 45.4842 13.3422 45.3081L34.2299 0.426679C34.2911 0.295329 34.39 0.185072 34.5138 0.109819C34.6377 0.034565 34.7811 -0.00231392 34.9259 0.00383447C35.0707 0.00998285 35.2105 0.0588831 35.3275 0.144366C35.4446 0.229849 35.5337 0.348085 35.5836 0.484157C38.0138 7.14539 37.6984 14.4991 34.7068 20.9278L18.6864 55.3545C18.6275 55.4812 18.5336 55.5885 18.4157 55.6637C18.2978 55.7389 18.161 55.7788 18.0212 55.7788H18.0199Z" fill="#C6AC73"/>
<path d="M9.77131 58.1917C8.88049 58.1908 8.00425 57.9654 7.22353 57.5364C6.44281 57.1074 5.78279 56.4886 5.30442 55.7371C4.82606 54.9856 4.54477 54.1257 4.48655 53.2367C4.42834 52.3478 4.59506 51.4585 4.97132 50.6511C5.37249 49.7886 5.99824 49.0498 6.78302 48.5122C7.5678 47.9746 8.48271 47.658 9.43191 47.5955C10.3811 47.5329 11.3297 47.7269 12.1782 48.1569C13.0267 48.5869 13.7439 49.2372 14.2547 50.0397C14.7655 50.8422 15.0511 51.7673 15.0816 52.718C15.112 53.6688 14.8862 54.6103 14.4278 55.4438C13.9694 56.2773 13.2952 56.9722 12.476 57.4556C11.6568 57.9391 10.7226 58.1933 9.77131 58.1917ZM6.30187 51.2699C5.92723 52.0745 5.84318 52.9841 6.06404 53.8438C6.2849 54.7034 6.797 55.4599 7.51309 55.9843C8.22918 56.5087 9.10494 56.7686 9.99116 56.7197C10.8774 56.6707 11.7192 56.316 12.3732 55.716C13.0272 55.116 13.453 54.3077 13.5779 53.429C13.7027 52.5503 13.5191 51.6554 13.0581 50.8969C12.5972 50.1384 11.8875 49.5632 11.0501 49.2693C10.2126 48.9754 9.29907 48.981 8.46523 49.2851C7.50981 49.6342 6.73184 50.348 6.30187 51.2699Z" fill="#C6AC73"/>
<path d="M9.77125 61.9999C8.24079 61.998 6.73549 61.6105 5.39426 60.8734C4.05302 60.1362 2.91906 59.0731 2.09702 57.7822C1.27498 56.4913 0.791337 55.014 0.690731 53.4869C0.590125 51.9598 0.875795 50.4319 1.52138 49.0442C2.21081 47.5632 3.28579 46.2947 4.63375 45.3717C5.9817 44.4488 7.55304 43.9052 9.18319 43.798C10.8133 43.6907 12.4423 44.0238 13.8996 44.7623C15.3568 45.5008 16.5887 46.6175 17.4661 47.9955C18.3436 49.3735 18.8345 50.9621 18.8872 52.5949C18.94 54.2278 18.5527 55.8447 17.766 57.2765C16.9793 58.7083 15.8221 59.9022 14.4155 60.7332C13.009 61.5642 11.4049 62.0017 9.77125 61.9999ZM2.85192 49.663C2.21322 51.0339 1.99546 52.5633 2.22619 54.0579C2.45691 55.5525 3.12575 56.9451 4.1481 58.0595C5.17044 59.1738 6.50035 59.96 7.96956 60.3184C9.43878 60.6768 10.9813 60.5913 12.4019 60.0729C13.8226 59.5544 15.0576 58.6262 15.9506 57.4058C16.8436 56.1853 17.3546 54.7274 17.4188 53.2164C17.4831 51.7055 17.0978 50.2095 16.3116 48.9176C15.5254 47.6257 14.3737 46.596 13.0022 45.9588C12.0934 45.53 11.1086 45.2856 10.1048 45.2399C9.10094 45.1942 8.098 45.3481 7.15401 45.6926C6.21002 46.0371 5.34373 46.5654 4.60528 47.2469C3.86683 47.9284 3.27088 48.7497 2.85192 49.663Z" fill="#C6AC73"/>
<path d="M24.5687 33.5682C24.3742 33.568 24.1877 33.4906 24.0502 33.353L23.3164 32.6192C23.2443 32.552 23.1865 32.471 23.1464 32.381C23.1063 32.291 23.0847 32.1939 23.083 32.0953C23.0813 31.9968 23.0994 31.8989 23.1363 31.8076C23.1732 31.7162 23.2281 31.6332 23.2978 31.5635C23.3675 31.4939 23.4505 31.4389 23.5418 31.402C23.6332 31.3651 23.7311 31.347 23.8296 31.3487C23.9281 31.3505 24.0253 31.3721 24.1153 31.4122C24.2053 31.4523 24.2863 31.5101 24.3535 31.5822L25.0872 32.3159C25.1897 32.4185 25.2595 32.5492 25.2878 32.6915C25.316 32.8337 25.3015 32.9812 25.246 33.1152C25.1905 33.2492 25.0966 33.3637 24.976 33.4443C24.8555 33.525 24.7137 33.5681 24.5687 33.5682Z" fill="#C6AC73"/>
</g>
<defs>
<clipPath id="clip0_62_109">
<rect width="47.0705" height="62" fill="white" transform="translate(0.666626)"/>
</clipPath>
</defs>
</svg>
