<svg width="40" height="40" viewBox="0 0 40 40" fill="none" xmlns="http://www.w3.org/2000/svg">
<path d="M31.9294 15.0733C31.916 14.0634 31.7269 13.0636 31.3708 12.1186C31.0619 11.3215 30.5901 10.5975 29.9857 9.99305C29.3812 9.38856 28.6572 8.91681 27.8601 8.60794C26.9272 8.25775 25.9417 8.0684 24.9454 8.04794C23.6628 7.99061 23.2561 7.97461 20.0001 7.97461C16.7441 7.97461 16.3268 7.97461 15.0534 8.04794C14.0576 8.06855 13.0726 8.2579 12.1401 8.60794C11.3428 8.9166 10.6188 9.38827 10.0143 9.99279C9.40975 10.5973 8.93808 11.3214 8.62943 12.1186C8.27854 13.0508 8.08959 14.0361 8.07076 15.0319C8.01343 16.3159 7.99609 16.7226 7.99609 19.9786C7.99609 23.2346 7.99609 23.6506 8.07076 24.9253C8.09076 25.9226 8.27876 26.9066 8.62943 27.8413C8.9386 28.6383 9.41062 29.362 10.0153 29.9663C10.6201 30.5706 11.3442 31.042 12.1414 31.3506C13.0713 31.7149 14.0566 31.9178 15.0548 31.9506C16.3388 32.0079 16.7454 32.0253 20.0014 32.0253C23.2574 32.0253 23.6748 32.0253 24.9481 31.9506C25.9443 31.931 26.9299 31.7421 27.8628 31.3919C28.6597 31.0827 29.3834 30.6108 29.9879 30.0064C30.5923 29.402 31.0642 28.6782 31.3734 27.8813C31.7241 26.9479 31.9121 25.9639 31.9321 24.9653C31.9894 23.6826 32.0068 23.2759 32.0068 20.0186C32.0041 16.7626 32.0041 16.3493 31.9294 15.0733ZM19.9921 26.1359C16.5868 26.1359 13.8281 23.3773 13.8281 19.9719C13.8281 16.5666 16.5868 13.8079 19.9921 13.8079C21.6269 13.8079 23.1947 14.4574 24.3507 15.6133C25.5067 16.7693 26.1561 18.3371 26.1561 19.9719C26.1561 21.6067 25.5067 23.1746 24.3507 24.3305C23.1947 25.4865 21.6269 26.1359 19.9921 26.1359ZM26.4014 15.0173C26.2126 15.0175 26.0256 14.9804 25.8512 14.9082C25.6767 14.8361 25.5182 14.7302 25.3847 14.5967C25.2512 14.4632 25.1453 14.3047 25.0731 14.1302C25.001 13.9557 24.9639 13.7687 24.9641 13.5799C24.9641 13.3913 25.0013 13.2045 25.0735 13.0302C25.1457 12.8559 25.2515 12.6975 25.3849 12.5641C25.5183 12.4307 25.6767 12.3248 25.851 12.2526C26.0253 12.1804 26.2121 12.1433 26.4008 12.1433C26.5894 12.1433 26.7762 12.1804 26.9505 12.2526C27.1249 12.3248 27.2832 12.4307 27.4166 12.5641C27.55 12.6975 27.6559 12.8559 27.7281 13.0302C27.8003 13.2045 27.8374 13.3913 27.8374 13.5799C27.8374 14.3746 27.1948 15.0173 26.4014 15.0173Z" fill="white"/>
<path d="M19.992 23.9758C22.2034 23.9758 23.996 22.1831 23.996 19.9718C23.996 17.7604 22.2034 15.9678 19.992 15.9678C17.7807 15.9678 15.988 17.7604 15.988 19.9718C15.988 22.1831 17.7807 23.9758 19.992 23.9758Z" fill="white"/>
</svg>
