<svg width="70" height="65" viewBox="0 0 70 65" fill="none" xmlns="http://www.w3.org/2000/svg">
<g clip-path="url(#clip0_57_1659)">
<g clip-path="url(#clip1_57_1659)">
<path d="M55.4421 56.337H14.4934C10.7244 56.3323 7.11113 54.8329 4.44617 52.1677C1.78121 49.5025 0.282156 45.8891 0.277832 42.1201V33.0733C0.277832 32.8567 0.363907 32.6489 0.517122 32.4956C0.670337 32.3424 0.87814 32.2563 1.09482 32.2563H68.8421C69.0587 32.2563 69.2665 32.3424 69.4198 32.4956C69.573 32.6489 69.659 32.8567 69.659 33.0733V42.1201C69.6547 45.8893 68.1555 49.503 65.4902 52.1682C62.825 54.8335 59.2114 56.3327 55.4421 56.337ZM1.9118 33.8903V42.1201C1.91541 45.4562 3.24227 48.6546 5.60125 51.0136C7.96023 53.3726 11.1587 54.6994 14.4948 54.7031H55.4421C58.7782 54.6994 61.9767 53.3726 64.3356 51.0136C66.6946 48.6546 68.0215 45.4562 68.0251 42.1201V33.8903H1.9118Z" fill="#C6AC73"/>
<path d="M55.8017 64.4972H14.1353C14.0144 64.4974 13.8948 64.4706 13.7854 64.419C13.676 64.3673 13.5795 64.292 13.5027 64.1984C13.426 64.1049 13.371 63.9954 13.3417 63.878C13.3124 63.7606 13.3095 63.6382 13.3333 63.5196L14.9673 55.3565C15.0045 55.1712 15.1047 55.0046 15.2509 54.8849C15.3972 54.7653 15.5804 54.7 15.7693 54.7002H54.1677C54.3564 54.7003 54.5393 54.7657 54.6852 54.8853C54.8312 55.005 54.9312 55.1715 54.9683 55.3565L56.6023 63.5196C56.6261 63.6382 56.6233 63.7606 56.594 63.878C56.5647 63.9954 56.5097 64.1049 56.4329 64.1984C56.3562 64.292 56.2596 64.3673 56.1502 64.419C56.0408 64.4706 55.9213 64.4974 55.8003 64.4972H55.8017ZM15.1321 62.8633H54.8036L53.4978 56.3342H16.4379L15.1321 62.8633Z" fill="#C6AC73"/>
<path d="M68.9047 42.1662H1.09482C0.87814 42.1662 0.670337 42.0801 0.517122 41.9269C0.363907 41.7737 0.277832 41.5659 0.277832 41.3492C0.277832 41.1325 0.363907 40.9247 0.517122 40.7715C0.670337 40.6183 0.87814 40.5322 1.09482 40.5322H68.9047C69.1214 40.5322 69.3292 40.6183 69.4824 40.7715C69.6356 40.9247 69.7217 41.1325 69.7217 41.3492C69.7217 41.5659 69.6356 41.7737 69.4824 41.9269C69.3292 42.0801 69.1214 42.1662 68.9047 42.1662Z" fill="#C6AC73"/>
<path d="M64.1391 33.9965C63.9224 33.9965 63.7146 33.9104 63.5614 33.7572C63.4081 33.6039 63.3221 33.3961 63.3221 33.1795V31.7211C63.3221 29.0646 59.8104 26.0989 55.1086 26.0989H46.1654C45.9487 26.0989 45.7409 26.0128 45.5877 25.8596C45.4344 25.7064 45.3484 25.4986 45.3484 25.2819C45.3484 25.0653 45.4344 24.8574 45.5877 24.7042C45.7409 24.551 45.9487 24.4649 46.1654 24.4649C50.5226 24.4649 54.0629 22.1338 54.0629 19.2648C54.0629 16.3958 50.5934 14.1164 46.1654 14.1164H41.6719C41.4559 14.1143 41.2493 14.0276 41.0966 13.8748C40.9438 13.722 40.8571 13.5155 40.8549 13.2995V12.7317C40.8549 7.63502 43.4843 5.26576 47.9573 2.13398H44.1787C38.3482 2.13398 24.7875 3.08713 24.7875 11.9065V13.2395C24.7875 13.4562 24.7015 13.664 24.5483 13.8172C24.395 13.9705 24.1872 14.0565 23.9706 14.0565C19.341 14.0565 15.7176 16.3523 15.7176 19.2839C15.7175 19.3369 15.7125 19.3898 15.7027 19.4418C15.8306 22.2672 19.341 24.4649 23.8085 24.4649C24.0261 24.4649 24.2348 24.5514 24.3886 24.7052C24.5425 24.8591 24.6289 25.0677 24.6289 25.2853C24.6289 25.5029 24.5425 25.7116 24.3886 25.8654C24.2348 26.0193 24.0261 26.1057 23.8085 26.1057H14.8652C10.2547 26.0989 6.67767 29.2307 6.67767 31.9417V33.1672C6.67767 33.3839 6.5916 33.5917 6.43838 33.7449C6.28517 33.8981 6.07737 33.9842 5.86069 33.9842C5.64401 33.9842 5.43621 33.8981 5.28299 33.7449C5.12978 33.5917 5.0437 33.3839 5.0437 33.1672V31.9417C5.0437 30.0681 6.13302 28.1686 8.01345 26.7212C9.89388 25.2738 12.3476 24.4649 14.8652 24.4649H17.4115C15.3513 23.2395 14.0673 21.3795 14.0673 19.2907C14.0671 19.2266 14.0739 19.1627 14.0877 19.1001C14.2157 15.4726 17.9793 12.7112 23.1536 12.4457V11.9092C23.1536 4.65302 30.8183 0.500002 44.1774 0.500002H50.637C50.8127 0.49961 50.9838 0.555847 51.125 0.660372C51.2661 0.764897 51.3699 0.912143 51.4208 1.08027C51.4717 1.2484 51.467 1.42846 51.4075 1.59373C51.348 1.75901 51.2368 1.90071 51.0904 1.99781C45.6438 5.62795 42.5938 7.71672 42.493 12.4825H46.1694C51.5139 12.4825 55.701 15.4522 55.701 19.2526C55.701 21.3563 54.4387 23.234 52.418 24.4595H55.1127C60.3591 24.4595 64.9601 27.8473 64.9601 31.7171V33.1795C64.9601 33.2871 64.9389 33.3937 64.8976 33.4931C64.8562 33.5924 64.7957 33.6827 64.7194 33.7586C64.6431 33.8345 64.5526 33.8946 64.453 33.9354C64.3534 33.9763 64.2467 33.997 64.1391 33.9965Z" fill="#C6AC73"/>
</g>
</g>
<defs>
<clipPath id="clip0_57_1659">
<rect width="69.4466" height="64" fill="white" transform="translate(0.276611 0.5)"/>
</clipPath>
<clipPath id="clip1_57_1659">
<rect width="69.4466" height="64" fill="white" transform="translate(0.276611 0.5)"/>
</clipPath>
</defs>
</svg>
