<svg width="1466" height="353" viewBox="0 0 1466 353" fill="none" xmlns="http://www.w3.org/2000/svg">
<path d="M94.8568 313.828H459.141V319.074H94.8568V313.828Z" fill="white"/>
<path d="M1368.7 319.074H1006.73V313.828H1368.7V319.074Z" fill="white"/>
<path d="M128.874 102.918L118.48 136.175V138.254H120.559L130.952 107.075V102.918H128.874ZM114.323 86.2879L112.246 111.233H116.402V104.996L118.48 96.6814L116.402 86.2879H114.323ZM108.089 117.467L103.931 125.781H106.01L110.167 117.467H108.089ZM95.6166 154.883C98.8752 154.393 103.726 150.236 110.167 142.411V140.333L95.6166 154.883ZM95.6166 57.188V59.2673L103.931 63.4243V61.3458L97.6951 57.188H95.6166ZM47.8083 167.354V169.433H56.1232L66.5166 165.275V163.196H64.4372L47.8083 167.354ZM54.0438 57.188C54.0438 59.9604 51.2722 61.3458 45.7298 61.3458C40.1857 86.6152 36.0278 115.715 33.2587 148.648C41.328 148.648 62.1148 141.719 95.6166 127.861V125.781H91.4587C102.544 114.453 108.089 102.674 108.089 90.4458V84.2094C108.089 68.9685 97.6951 59.9604 76.9083 57.188H54.0438ZM31.1802 169.433L33.2587 175.668H37.4166L41.5719 171.511V169.433H39.4934L33.2587 171.511L31.1802 169.433ZM20.7868 42.6375L10.3934 102.918V104.996H12.4719L22.8653 46.7954V42.6375H20.7868ZM8.3149 181.905H10.3934V183.983L6.23639 188.141H4.15788V186.062L8.3149 181.905ZM29.1017 21.8524H37.4166L43.6504 26.0094L58.2017 23.9309C82.2472 23.9309 104.419 37.79 124.717 65.5028L135.11 86.2879L133.031 88.3673L135.11 98.7607V109.154C135.11 144.777 106.01 171.797 47.8083 190.219L27.0232 192.298C27.0232 188.792 24.2507 186.713 18.7083 186.062V194.375H12.4719V181.905L10.3934 179.826L12.4719 177.748V175.668C4.15788 169.964 0 165.113 0 161.118C4.15788 98.3536 11.0857 52.6238 20.7868 23.9309H22.8653L24.9438 26.0094L29.1017 21.8524Z" fill="white"/>
<path d="M178.588 57.8002L176.51 56.5763C178.14 61.3878 179.566 63.7909 180.79 63.7909L178.588 57.8002ZM173.575 53.2747L177.855 25.7654L175.532 28.0878H173.331V20.7521L177.855 15.7379V23.1964H180.178V13.2935L175.532 8.40209L182.501 0.821548L209.646 10.7262V13.2935C204.427 35.3025 201.004 54.4583 199.374 70.7608L199.13 70.6389C199.537 72.4322 199.986 74.2668 200.475 76.1409L198.762 83.5986C196.073 83.5986 194.441 80.2979 193.872 73.6956H192.16V78.5853H185.679L182.501 66.2371L180.79 68.6823H179.077C175.164 64.3621 172.27 58.5328 170.396 51.1962L173.575 53.2747ZM168.807 67.826H171.007V57.9222H168.807V67.826ZM168.807 20.7521H171.007L173.331 30.5331H168.807V20.7521ZM166.483 30.5331H168.807L171.007 45.4502H166.483V50.3416L164.772 49.2414L166.483 30.5331Z" fill="white"/>
<path d="M319.762 26.376L319.64 28.4545H325.875L348.862 26.376V24.2975H336.392L319.762 26.376ZM300.199 49.2413V51.3198H302.277L343.849 47.1628L343.972 45.0843L337.858 43.0058L335.657 45.0843H333.579L331.622 43.0058L300.199 49.2413ZM248.112 191.686L247.745 200H249.823L250.19 191.686H248.112ZM245.055 132.384L244.199 155.25H246.277L247.133 132.384H245.055ZM314.016 15.9826L313.77 20.1396H307.536L307.412 22.219H309.49L349.106 20.1396H357.421L357.299 22.219L353.019 26.376L354.975 28.4545L354.853 32.6124C354.61 39.7858 352.366 43.9428 348.129 45.0843L350.084 51.3198L347.64 57.5545L345.683 55.476H343.604C324.204 56.4543 314.462 57.8422 314.382 59.633L312.303 57.5545C288.583 61.3053 276.559 68.2348 276.233 78.3413L275.623 94.9694L325.632 90.8132L327.709 92.8909L327.586 94.9694H317.195L317.073 97.0479C324 97.0479 327.383 98.4359 327.22 101.206V103.284C326.977 110.214 325.466 113.678 322.697 113.678H310.225L310.103 115.756H324.653L324.53 119.913C324.448 122.279 306.923 127.128 271.954 134.463L269.02 157.328L271.097 159.407V161.485L268.897 163.565L268.775 165.643L270.609 171.878H268.531L270.365 178.113C270.853 183.983 266.002 194.743 255.814 210.393L239.186 208.315L241.997 187.528C236.698 187.528 234.051 184.961 234.051 179.826V179.213C236.169 175.711 238.697 153.864 241.631 113.678H245.788L243.832 111.598L246.521 94.9694L248.478 97.0479H250.556L253.492 76.2628L253.858 67.9479C246.928 67.9479 243.466 66.5625 243.466 63.7909L247.867 57.5545C242.324 57.5545 239.675 55.476 239.919 51.3198C240.326 38.8479 242.61 32.6124 246.767 32.6124C253.694 32.6124 257.282 29.1476 257.527 22.219H259.605L261.562 24.2975L265.964 20.1396H272.199L278.19 26.376L314.016 15.9826Z" fill="white"/>
<path d="M484.899 75.4064H489.056L486.978 81.6428H484.899V75.4064ZM470.35 56.6998L468.271 67.0915H470.35L472.428 65.013V56.6998H470.35ZM457.878 185.572V187.65L466.193 193.887V191.808L457.878 185.572ZM457.878 44.2279C460.649 50.5055 463.42 53.9685 466.193 54.6213V50.4634L457.878 44.2279ZM464.114 71.2494L453.721 85.7998H455.799L466.193 73.3279V71.2494H464.114ZM447.484 171.022V173.102L455.799 181.415C453.11 175.139 450.338 171.675 447.484 171.022ZM416.306 96.1932H418.384C440.149 85.7594 455.39 74.672 464.114 62.9345V58.7783C464.114 54.051 455.799 49.2009 439.171 44.2279L426.699 48.3849L416.306 96.1932ZM393.442 62.9345H395.521V69.17L393.442 77.4849H391.363V71.2494L393.442 62.9345ZM389.284 81.6428H391.363V89.9577H389.284V81.6428ZM385.127 116.978H387.206V108.663H385.127V116.978ZM414.227 21.3634H439.171C468.271 26.8251 482.822 39.297 482.822 58.7783V71.2494L462.036 100.349H464.114L484.899 81.6428V85.7998C477.808 101.615 468.8 112.007 457.878 116.978L445.406 121.136V129.45C448.421 129.45 462.972 147.465 489.056 183.493C494.6 185.775 500.142 191.319 505.686 200.122V202.202L495.293 193.887V195.965C502.22 203.302 505.686 208.844 505.686 212.595H503.608L493.214 218.83H491.136L486.978 212.595L484.899 214.672H482.822C455.106 192.01 435.706 169.147 424.621 146.078L414.227 125.293C409.337 125.293 406.565 133.608 405.914 150.236C406.809 164.094 406.116 172.531 403.835 175.546C399.758 178.89 399.066 182.231 401.756 185.572V189.73H395.521C392.748 189.73 391.363 186.957 391.363 181.415H389.284C389.284 186.957 386.675 189.036 381.46 187.65L372.289 175.424L374.734 156.472V148.157L387.206 89.9568H389.284V98.2717H391.363L401.756 54.6213C398.985 54.6213 397.599 57.3929 397.599 62.9345H395.521V58.7783H383.049V56.6998C383.049 53.929 387.206 51.8505 395.521 50.4634V48.3849H391.363L378.891 52.5428H376.812C376.812 49.772 379.583 48.3849 385.127 48.3849V46.3064C379.583 46.3064 376.812 44.2279 376.812 40.07L414.227 21.3634Z" fill="white"/>
<path d="M592.695 116H594.773L594.528 118.079L556.869 121.87L554.913 119.546L555.035 117.591L573.865 116.734L573.743 118.813L592.695 116ZM524.1 113.311L523.122 127.86L525.201 127.982L526.179 113.555L524.1 113.311ZM628.154 22.4637L638.179 29.4327C635.245 41.7423 629.944 47.6506 622.284 47.1628L567.995 49.6072L567.751 53.765L578.023 54.4985L590.617 53.2746L592.572 55.5996L594.65 55.7216L609.323 54.4985L613.48 54.8653L613.358 56.9438L565.062 61.9571L561.271 88.8566L563.35 88.9786L619.839 84.4548L621.673 86.6562L621.551 88.7347L617.393 88.3671V90.4456L631.699 93.6243L631.576 95.7028C628.561 103.448 608.671 109.725 571.908 114.533L551 115.266L552.956 117.345L542.93 143.755H540.852L542.074 125.048L539.996 124.926L535.96 153.781C577.451 148.24 606.756 146.039 623.874 147.179L634.021 149.991L633.9 154.148L629.742 153.905L631.576 156.105L631.21 162.34C627.215 167.558 618.738 169.76 605.778 168.944L605.656 171.022L622.284 172.123L621.917 176.28L525.201 190.463L523.122 190.341C516.439 188.873 513.097 186.713 513.097 183.861V183.493L513.463 177.257L519.21 154.759L517.254 152.559L521.411 152.681L520.677 163.074L522.756 163.318C523.57 156.392 525.201 153.048 527.647 153.293L525.691 150.97L527.158 130.305L523 129.939L520.189 140.21L522.512 138.254L524.591 138.376L523.734 150.848L521.656 150.602L522.022 144.489L519.943 144.367L519.699 148.524L517.621 148.402L517.865 144.245L524.469 109.154L522.389 109.031L527.158 99.0044L525.201 96.8039L525.323 94.7246L529.848 59.633L531.804 61.8343L533.882 61.9571L534.128 57.8001L532.782 47.2847L536.084 28.6984L536.45 22.4637L538.529 22.7085L540.486 24.909L542.686 22.9524L544.765 23.1963L546.72 25.2757L548.923 23.3192L555.157 23.8087L628.154 22.4637Z" fill="white"/>
<path d="M744.872 160.751L735.946 171.145H738.025L746.951 160.751H744.872ZM718.828 177.381V179.46H720.907L729.588 173.223L718.828 177.381ZM707.458 160.751H709.536L713.938 156.594H711.859L707.458 160.751ZM695.964 75.5281L695.842 77.6075L732.522 54.743L749.396 50.586L749.64 46.4281H745.483C723.555 54.5807 707.048 64.2801 695.964 75.5281ZM695.23 191.93L695.108 194.008H703.422L713.938 191.93V189.851H711.859L695.23 191.93ZM724.33 19.4075C727.999 22.1791 739.654 23.5645 759.3 23.5645L759.177 25.643H744.627L744.505 27.7207C761.868 27.7207 772.708 31.8777 777.029 40.1926L776.785 44.3496H766.392L766.27 46.4281L780.697 48.5075L780.575 50.586H768.103L767.981 52.6645C772.138 52.6645 774.136 54.0516 773.972 56.8215C749.274 56.8215 727.222 65.8296 707.824 83.843L707.702 85.9215C734.52 93.0958 755.755 109.032 771.405 133.73L771.282 135.808C766.228 153.742 752.085 170.37 728.855 185.694L716.139 187.773L716.016 189.851H720.174C720.01 193.6 707.293 197.757 682.025 202.323L682.27 198.166H692.663L692.907 196.088C684.021 196.088 675.991 191.237 668.82 181.536C662.624 178.358 659.527 172.287 659.527 163.319C659.527 162.506 659.567 161.65 659.65 160.751L666.13 156.594L672.122 160.751H676.279C715.405 154.638 735.579 142.167 736.802 123.336C720.418 115.022 709.576 110.865 704.279 110.865L704.157 112.943L683.736 104.628L685.692 106.707L685.57 110.865C668.289 98.1487 659.852 88.4501 660.262 81.7645L676.523 52.6645L687.405 44.3496L687.161 48.5075L724.33 19.4075Z" fill="white"/>
<path d="M903.286 160.507L901.208 170.899V177.135H903.286L905.365 162.586V160.507H903.286ZM892.893 121.014L890.815 133.485V135.563H892.893L894.972 125.171V121.014H892.893ZM888.736 145.957H890.815V137.642H888.736V145.957ZM826.378 44.1056H828.457V29.5552H826.378V44.1056ZM824.3 46.1841L822.221 62.8122V66.9701H824.3L826.378 50.342V46.1841H824.3ZM820.143 77.3635H822.221V69.0486H820.143V77.3635ZM818.064 79.442L815.985 89.8354V91.9139H818.064L820.143 83.599V79.442H818.064ZM813.906 108.542H815.985V100.227H813.906V108.542ZM801.434 170.899H803.513V181.292H801.434V170.899ZM824.3 21.2403H826.378V27.4767H828.457V23.3188H836.771C839.541 23.3188 840.928 27.4767 840.928 35.7916L847.163 37.8701C847.163 33.7122 848.549 31.6337 851.321 31.6337L853.4 33.7122V35.7916L843.006 91.9139L874.185 89.8354H894.972L897.05 79.442L894.972 77.3635H899.129L897.05 62.8122V60.7337H901.208L899.129 58.6552V54.499H903.286V50.342H899.129V48.2635H903.286L901.208 46.1841V31.6337L903.286 33.7122H905.365V25.3982L903.286 23.3188V21.2403H909.521L899.129 91.9139C901.899 91.9139 906.056 69.0486 911.6 23.3188L919.915 21.2403C921.3 32.3268 923.378 37.8701 926.15 37.8701H928.229C928.229 33.7122 929.615 31.6337 932.386 31.6337H934.465C927.535 79.564 917.142 135.687 903.286 200.001H901.208L899.129 197.922L901.208 195.844V179.214H899.129L892.893 200.001H886.658C883.885 200.001 882.5 195.844 882.5 187.529H880.421V195.844H878.343C875.57 195.844 874.185 193.764 874.185 189.607C874.185 179.582 878.343 156.025 886.658 118.935H884.578L857.557 121.014L838.849 118.935C834.691 152.192 830.534 174.366 826.378 185.45H820.143C817.37 185.45 815.985 179.907 815.985 168.822H813.906L811.828 183.371L807.671 179.214V172.978L809.749 170.899V168.822L807.671 166.744H805.591L803.513 168.822H801.434L799.356 160.507C804.898 113.719 811.135 79.7693 818.064 58.6552H820.143L818.064 56.5767V50.342L824.3 27.4767H822.221L824.3 21.2403Z" fill="white"/>
<path d="M1093.32 33.5904H1095.4V35.6689L1080.85 41.9053C1080.85 39.1345 1085 36.362 1093.32 33.5904ZM1074.61 48.1408V50.2202L1064.22 60.6119V58.5334L1074.61 48.1408ZM1049.67 147.914V154.149L1051.75 162.464H1053.83V160.385L1051.75 147.914H1049.67ZM1116.18 25.2755H1118.26C1138.39 25.2755 1153.64 33.5904 1163.99 50.2202V52.297H1159.83L1161.91 54.3755V56.454C1153.6 55.4757 1149.44 54.092 1149.44 52.297C1117.08 52.297 1092.83 68.9268 1076.69 102.184L1072.53 116.734L1078.77 156.228H1085C1102.28 156.228 1121.68 143.756 1143.2 118.814H1145.28V120.892C1130.53 142.167 1113.9 154.638 1095.4 158.306V160.385H1097.47C1111.98 160.385 1130 147.914 1151.52 122.971L1157.76 131.284V137.52C1157.76 142.004 1147.36 152.398 1126.58 168.699L1124.5 170.777H1122.42V174.934C1145.97 163.442 1157.76 155.127 1157.76 149.992H1161.91V152.071C1144.47 172.856 1124.38 183.249 1101.63 183.249V185.328H1112.03L1120.34 183.249H1122.42V185.328L1097.47 189.364C1086.96 189.364 1075.87 181.782 1064.22 166.62V168.699L1074.61 185.328V187.284H1068.37C1055.49 178.481 1047.87 167.437 1045.51 154.149L1043.43 127.128C1043.43 92.4028 1050.36 70.2314 1064.22 60.6119V62.6904L1051.75 83.4772V85.5557H1053.83C1053.83 72.3494 1071.15 53.6428 1105.79 29.4334L1099.55 31.5119H1097.47V29.4334L1116.18 25.2755Z" fill="white"/>
<path d="M1260.17 122.481L1245.62 139.111H1247.7L1262.25 122.481H1260.17ZM1214.44 166.131V168.211C1214.44 173.02 1220.68 177.177 1233.15 180.683H1237.31V178.603C1229.31 178.523 1221.69 174.366 1214.44 166.131ZM1199.89 155.738V159.896L1201.97 166.131H1204.05V161.974L1201.97 155.738H1199.89ZM1195.73 105.853L1193.65 107.931V124.559H1195.73L1197.81 105.853H1195.73ZM1220.68 22.7089L1224.83 28.9444L1222.75 39.337L1224.83 41.4155H1226.91L1228.99 31.0238H1233.15L1235.23 37.2576C1224.14 77.2002 1218.6 108.38 1218.6 130.796C1219.98 146.039 1222.75 153.659 1226.91 153.659L1274.72 99.6172L1276.8 89.2238V31.0238L1280.95 26.8659C1283.72 26.8659 1285.11 29.6384 1285.11 35.1791H1287.19C1287.19 29.6384 1290.65 26.8659 1297.58 26.8659L1301.74 35.1791L1299.66 45.5725C1302.43 45.5725 1303.82 42.1086 1303.82 35.1791H1307.98L1310.06 37.2576H1312.13L1301.74 186.917L1299.66 195.231C1294.12 195.231 1291.35 198.002 1291.35 203.546H1283.03L1285.11 182.761H1280.95V195.231L1274.72 201.468V199.389L1276.8 178.603C1272.64 178.603 1270.56 175.833 1270.56 170.289H1268.48L1233.15 186.917L1216.52 182.761V184.84C1202.17 184.84 1192.47 164.053 1187.42 122.481C1192.96 60.1238 1198.5 28.9444 1204.05 28.9444V26.8659H1206.12V35.1791H1201.97V39.337L1204.05 41.4155V43.494H1201.97L1204.05 49.7304L1197.81 60.1238H1199.89L1201.97 58.0444L1195.73 95.4593V103.774H1197.81C1202.21 49.7304 1209.83 22.7089 1220.68 22.7089Z" fill="white"/>
<path d="M1446.46 26.9878H1454.77V24.9093H1446.46V26.9878ZM1369.55 141.31L1365.39 187.04H1369.55L1367.47 176.647V172.49L1371.63 166.253H1369.55L1371.63 164.175V162.096L1369.55 160.017V157.938L1373.71 149.625L1371.63 141.31H1369.55ZM1458.93 18.6729L1465.17 20.7514V24.9093H1458.93L1463.09 31.1448C1460.07 38.0743 1448.99 41.5374 1429.83 41.5374L1415.28 43.6159L1413.2 49.8514H1415.28C1411.12 59.7158 1402.81 104.06 1390.34 182.883L1396.57 209.904H1394.49C1391.4 209.904 1388.63 202.975 1386.18 189.118L1388.26 168.332V166.253H1386.18V170.41C1382.02 170.41 1379.94 171.797 1379.94 174.568V176.647L1384.1 209.904V211.983H1379.94L1371.63 205.747L1369.55 207.825H1367.47C1361.93 195.843 1359.16 185.449 1359.16 176.647L1361.24 178.725H1363.31L1359.16 164.175L1365.39 162.096V151.704H1361.24V149.625C1365.39 149.625 1367.47 148.24 1367.47 145.468V143.39H1363.31C1363.31 132.304 1365.39 126.76 1369.55 126.76V99.7382C1371.75 97.7817 1374.52 83.2313 1377.87 56.0878L1363.31 58.1663L1334.21 56.0878V54.0093L1344.61 51.9299V54.0093L1346.69 51.9299H1377.87V45.6944L1344.61 49.8514L1342.53 47.7729H1340.45L1327.98 49.8514L1321.74 45.6944L1323.82 35.3027L1321.74 33.2233C1321.74 26.2955 1330.06 22.8299 1346.69 22.8299L1458.93 18.6729Z" fill="white"/>
<path d="M544.6 322.247L542.996 324.79L545.852 323.107L545.266 322.364L544.6 322.247ZM538.809 301.588L538.77 302.253L537.283 303.388L536.617 303.349L538.809 301.588ZM536.11 295.915L536.031 296.58L541.275 297.832C541.353 296.946 540.738 296.436 539.435 296.306L536.11 295.915ZM548.943 325.416C548.787 326.799 544.405 330.111 535.797 335.354C545.603 331.441 550.613 328.429 550.821 326.315L550.157 326.239L549.608 325.494L548.943 325.416ZM535.758 317.317L535.718 317.944L542.214 319.351L542.88 319.39L542.956 318.725L540.374 317.786L535.758 317.317ZM533.02 287.542L536.228 288.558L536.149 289.223L532.862 288.871L533.02 287.542ZM523.315 302.527L523.512 307.223L529.575 306.557L529.459 307.887L539.279 303.622L539.2 304.288L534.153 307.731C539.656 306.218 542.619 303.649 543.035 300.023L541.705 299.867C541.444 302.058 540.662 303.088 539.357 302.958L539.474 301.627L538.809 301.588L539.71 299.632L540.297 300.375L540.962 300.493L541.039 299.828C539.423 298.29 536.84 297.336 533.293 296.971C527.137 296.267 523.811 298.12 523.315 302.527ZM520.811 319.664L518.815 331.481L519.404 332.224L520.068 332.302C523.251 332.668 530.462 329.891 541.705 323.969L543.192 322.794C543.113 320.994 541.444 319.925 538.183 319.587L532.901 318.961L520.811 319.664ZM520.303 287.463L522.142 289.028L528.246 288.363L528.833 289.107L529.497 289.185L531.531 288.755C538.991 289.537 544.378 293.24 547.69 299.867C548.578 299.97 548.905 301.119 548.669 303.31L548.161 307.965L546.831 307.81L546.909 307.144L547.809 305.227L547.222 304.483L547.926 303.896L547.338 303.153L546.048 303.036C545.76 305.567 543.23 308.187 538.456 310.9L538.379 311.565L539.045 311.605C540.714 311.814 543.048 310.966 546.048 309.062L545.93 310.392L542.135 313.991C544.587 314.252 548.174 318.205 552.895 325.847C552.373 330.699 545.135 335.707 531.179 340.871C525.205 343.766 520.602 345.045 517.368 344.705L516.195 343.179L515.529 343.14C515.399 344.47 514.446 345.032 512.673 344.822C512.516 346.048 512.072 346.661 511.343 346.661H511.109C510.221 346.557 509.96 344.966 510.325 341.888L509.66 341.849L508.642 345.057L507.979 344.98C508.447 340.597 508.017 338.341 506.687 338.211L506.335 335.471L507.077 334.884L506.452 334.142L512.908 306.048L512.321 305.344L512.986 305.422L512.399 304.718L514.159 294.859L514.199 294.194L513.378 289.42L514.042 289.459C516.52 288.102 518.464 287.425 519.872 287.425C520.029 287.425 520.172 287.438 520.303 287.463Z" fill="white"/>
<path d="M590.026 336.372V337.702L590.692 340.363H591.356V339.032L590.692 336.372H590.026ZM583.375 338.367V339.697L585.371 339.032V337.702L583.375 338.367ZM580.713 331.715H582.044V335.707H581.379L580.713 331.715ZM571.402 317.082V317.747H572.731C576.723 317.305 578.719 316.639 578.719 315.753H578.054L571.402 317.082ZM575.392 301.784L570.071 315.753H571.402C575.836 315.753 578.274 314.422 578.719 311.761L576.058 301.784H575.392ZM569.407 305.774L568.075 310.43L567.41 309.766H566.745L567.41 312.426H568.075L570.071 306.44V305.774H569.407ZM566.08 314.422L565.416 317.082H566.08L566.745 316.418V314.422H566.08ZM562.09 311.761L561.424 312.426V313.757H562.09L562.754 311.761H562.09ZM560.094 315.087L559.428 317.747H560.094L561.424 315.087H560.094ZM579.383 286.485C579.67 287.816 581.443 288.481 584.705 288.481L590.026 311.761H594.682V312.426L590.692 313.091V313.757C592.022 313.757 592.687 314.2 592.687 315.087H598.008V315.753C598.008 316.743 595.79 317.63 591.356 318.412L592.687 322.404L592.022 324.398L592.687 328.391L592.022 329.055H592.687L592.022 329.721L592.687 337.702V341.693L592.022 341.028H591.356L593.351 351.006H592.022C592.022 349.675 591.577 349.01 590.692 349.01V349.675L591.356 351.67H590.692L590.026 351.006H589.36C589.36 352.335 588.917 353 588.03 353L584.705 341.693H584.039V344.353H583.375L582.044 336.372L584.039 337.702V337.038C583.674 333.046 583.008 331.05 582.044 331.05L582.709 330.386V328.391H581.379V330.386H580.713V327.725L581.379 327.059H580.713L580.048 327.725V325.064H580.713L581.379 325.729H582.044L581.379 325.064V321.074L566.745 324.398V325.729L571.402 324.398L574.062 325.064L577.388 324.398V325.729C568.075 327.399 563.42 329.617 563.42 332.38C562.247 337.259 560.916 340.363 559.428 341.693V343.023H557.434L556.769 342.359H556.103V343.023L554.107 341.693L555.438 337.702H554.773C553.442 337.702 552.777 339.475 552.777 343.023L551.447 341.693L552.111 337.702L550.117 335.707L561.424 308.436H562.09C562.09 309.766 562.533 310.43 563.42 310.43L564.085 307.106L563.42 307.77H562.754V305.109L563.42 301.784L564.085 302.45H564.75L564.085 301.784V301.119L565.416 298.457H566.08L566.745 299.123H567.41V298.457C567.41 297.572 566.745 297.127 565.416 297.127L568.741 287.816H571.402L570.737 288.481V289.146C573.813 287.373 576.696 286.485 579.383 286.485Z" fill="white"/>
<path d="M636.586 306.479H637.917L637.252 308.475H636.586V306.479ZM631.931 300.492L631.266 303.818H631.931L632.596 303.152V300.492H631.931ZM627.939 341.732V342.398L630.6 344.392V343.726L627.939 341.732ZM627.939 296.501C628.826 298.511 629.714 299.618 630.6 299.828V298.497L627.939 296.501ZM629.935 305.148L626.61 309.804H627.275L630.6 305.813V305.148H629.935ZM624.614 337.075V337.741L627.275 340.401C626.414 338.393 625.526 337.285 624.614 337.075ZM614.636 313.13H615.301C622.266 309.792 627.143 306.244 629.935 302.488V301.158C629.935 299.645 627.275 298.093 621.953 296.501L617.962 297.832L614.636 313.13ZM607.319 302.488H607.985V304.483L607.319 307.144H606.656V305.148L607.319 302.488ZM605.99 308.475H606.656V311.135H605.99V308.475ZM604.66 319.782H605.325V317.121H604.66V319.782ZM613.971 289.184H621.953C631.266 290.933 635.921 294.923 635.921 301.158V305.148L629.269 314.46H629.935L636.586 308.475V309.804C634.317 314.865 631.436 318.191 627.939 319.782L623.949 321.113V323.772C624.913 323.772 629.57 329.538 637.917 341.067C639.691 341.796 641.464 343.571 643.238 346.388V347.053L639.913 344.392V345.057C642.129 347.405 643.238 349.178 643.238 350.378H642.573L639.247 352.374H638.582L637.252 350.378L636.586 351.043H635.921C627.052 343.792 620.844 336.476 617.297 329.094L613.971 322.443C612.406 322.443 611.519 325.103 611.311 330.424C611.597 334.859 611.375 337.559 610.645 338.523C609.341 339.593 609.12 340.663 609.981 341.732V343.062H607.985C607.097 343.062 606.656 342.176 606.656 340.401H605.99C605.99 342.176 605.155 342.84 603.487 342.398L600.552 338.484L601.333 332.42V329.76L605.325 311.135H605.99V313.796H606.656L609.981 299.828C609.093 299.828 608.65 300.714 608.65 302.488H607.985V301.158H603.994V300.492C603.994 299.606 605.325 298.94 607.985 298.497V297.832H606.656L602.664 299.162H601.998C601.998 298.275 602.885 297.832 604.66 297.832V297.166C602.885 297.166 601.998 296.501 601.998 295.172L613.971 289.184Z" fill="white"/>
<path d="M678.257 322.247L676.652 324.79L679.509 323.107L678.922 322.364L678.257 322.247ZM672.465 301.588L672.426 302.253L670.94 303.388L670.275 303.349L672.465 301.588ZM669.766 295.915L669.687 296.58L674.932 297.832C675.009 296.946 674.395 296.436 673.091 296.306L669.766 295.915ZM682.599 325.416C682.444 326.799 678.062 330.111 669.454 335.354C679.26 331.441 684.27 328.429 684.477 326.315L683.814 326.239L683.265 325.494L682.599 325.416ZM669.414 317.317L669.375 317.944L675.871 319.351L676.536 319.39L676.613 318.725L674.031 317.786L669.414 317.317ZM666.676 287.542L669.884 288.558L669.806 289.223L666.519 288.871L666.676 287.542ZM656.972 302.527L657.168 307.223L663.231 306.557L663.115 307.887L672.936 303.622L672.857 304.288L667.81 307.731C673.314 306.218 676.275 303.649 676.692 300.023L675.361 299.867C675.1 302.058 674.319 303.088 673.014 302.958L673.131 301.627L672.465 301.588L673.367 299.632L673.953 300.375L674.618 300.493L674.696 299.828C673.079 298.29 670.496 297.336 666.949 296.971C660.794 296.267 657.467 298.12 656.972 302.527ZM654.468 319.664L652.472 331.481L653.06 332.224L653.724 332.302C656.907 332.668 664.118 329.891 675.361 323.969L676.849 322.794C676.77 320.994 675.1 319.925 671.84 319.587L666.558 318.961L654.468 319.664ZM653.959 287.463L655.798 289.028L661.902 288.363L662.489 289.107L663.154 289.185L665.188 288.755C672.648 289.537 678.035 293.24 681.347 299.867C682.234 299.97 682.561 301.119 682.325 303.31L681.817 307.965L680.487 307.81L680.565 307.144L681.465 305.227L680.879 304.483L681.583 303.896L680.995 303.153L679.705 303.036C679.417 305.567 676.887 308.187 672.113 310.9L672.036 311.565L672.701 311.605C674.37 311.814 676.705 310.966 679.705 309.062L679.587 310.392L675.792 313.991C678.244 314.252 681.83 318.205 686.552 325.847C686.029 330.699 678.792 335.707 664.836 340.871C658.862 343.766 654.258 345.045 651.025 344.705L649.851 343.179L649.186 343.14C649.055 344.47 648.103 345.032 646.33 344.822C646.173 346.048 645.729 346.661 645 346.661H644.765C643.878 346.557 643.617 344.966 643.982 341.888L643.316 341.849L642.299 345.057L641.635 344.98C642.103 340.597 641.673 338.341 640.343 338.211L639.991 335.471L640.733 334.884L640.108 334.142L646.564 306.048L645.978 305.344L646.643 305.422L646.056 304.718L647.816 294.859L647.855 294.194L647.034 289.42L647.698 289.459C650.177 288.102 652.121 287.425 653.528 287.425C653.685 287.425 653.829 287.438 653.959 287.463Z" fill="white"/>
<path d="M712.023 319.469H712.689L712.61 320.135L700.559 321.347L699.933 320.603L699.972 319.977L705.998 319.703L705.959 320.369L712.023 319.469ZM690.073 318.608L689.76 323.264L690.426 323.304L690.738 318.686L690.073 318.608ZM723.37 289.537L726.578 291.767C725.639 295.707 723.942 297.597 721.492 297.44L704.12 298.224L704.042 299.554L707.327 299.788L711.358 299.397L711.984 300.141L712.649 300.18L717.344 299.788L718.674 299.906L718.636 300.572L703.181 302.174L701.967 310.782L702.632 310.822L720.708 309.374L721.295 310.079L721.257 310.743L719.927 310.627V311.292L724.504 312.309L724.464 312.973C723.501 315.452 717.135 317.461 705.372 318.999L698.681 319.235L699.307 319.9L696.099 328.351H695.433L695.825 322.364L695.16 322.326L693.868 331.56C707.145 329.785 716.522 329.081 722 329.446L725.248 330.347L725.208 331.676L723.878 331.598L724.464 332.302L724.348 334.298C723.069 335.968 720.356 336.673 716.209 336.411L716.171 337.075L721.492 337.427L721.374 338.758L690.426 343.297L689.76 343.258C687.621 342.788 686.551 342.097 686.551 341.183V341.067L686.67 339.071L688.508 331.872L687.882 331.168L689.213 331.207L688.977 334.532L689.642 334.61C689.903 332.394 690.426 331.325 691.207 331.402L690.581 330.659L691.051 324.048L689.721 323.929L688.821 327.217L689.563 326.591L690.229 326.629L689.955 330.62L689.29 330.542L689.408 328.585L688.742 328.546L688.664 329.876L687.998 329.837L688.077 328.506L690.191 317.278L689.526 317.238L691.051 314.03L690.426 313.325L690.464 312.661L691.912 301.431L692.538 302.137L693.203 302.174L693.281 300.845L692.85 297.48L693.908 291.533L694.024 289.537L694.689 289.615L695.315 290.32L696.02 289.694L696.685 289.772L697.311 290.438L698.016 289.811L700.012 289.968L723.37 289.537Z" fill="white"/>
<path d="M763.513 306.479H764.844L764.179 308.475H763.513V306.479ZM758.857 300.492L758.192 303.818H758.857L759.523 303.152V300.492H758.857ZM754.866 341.732V342.398L757.527 344.392V343.726L754.866 341.732ZM754.866 296.501C755.753 298.511 756.639 299.618 757.527 299.828V298.497L754.866 296.501ZM756.862 305.148L753.536 309.804H754.202L757.527 305.813V305.148H756.862ZM751.541 337.075V337.741L754.202 340.401C753.34 338.393 752.453 337.285 751.541 337.075ZM741.563 313.13H742.228C749.193 309.792 754.07 306.244 756.862 302.488V301.158C756.862 299.645 754.202 298.093 748.879 296.501L744.889 297.832L741.563 313.13ZM734.246 302.488H734.911V304.483L734.246 307.144H733.582V305.148L734.246 302.488ZM732.917 308.475H733.583V311.135H732.917V308.475ZM731.587 319.782H732.252V317.121H731.587V319.782ZM740.898 289.184H748.879C758.192 290.933 762.847 294.923 762.847 301.158V305.148L756.196 314.46H756.862L763.513 308.475V309.804C761.244 314.865 758.362 318.191 754.866 319.782L750.875 321.113V323.772C751.84 323.772 756.497 329.538 764.844 341.067C766.618 341.796 768.391 343.571 770.164 346.388V347.053L766.84 344.392V345.057C769.056 347.405 770.164 349.178 770.164 350.378H769.5L766.174 352.374H765.509L764.179 350.378L763.513 351.043H762.847C753.979 343.792 747.771 336.476 744.224 329.094L740.898 322.443C739.333 322.443 738.446 325.103 738.238 330.424C738.524 334.859 738.302 337.559 737.572 338.523C736.267 339.593 736.047 340.663 736.907 341.732V343.062H734.911C734.024 343.062 733.582 342.176 733.582 340.401H732.917C732.917 342.176 732.082 342.84 730.413 342.398L727.478 338.484L728.26 332.42V329.76L732.251 311.135H732.917V313.796H733.582L736.907 299.828C736.02 299.828 735.577 300.714 735.577 302.488H734.911V301.158H730.921V300.492C730.921 299.606 732.251 298.94 734.911 298.497V297.832H733.582L729.59 299.162H728.925C728.925 298.275 729.812 297.832 731.587 297.832V297.166C729.812 297.166 728.925 296.501 728.925 295.172L740.898 289.184Z" fill="white"/>
<path d="M816.726 333.789L813.87 337.114H814.535L817.392 333.789H816.726ZM808.392 339.11V339.776H809.057L811.835 337.78L808.392 339.11ZM804.754 333.789H805.419L806.827 332.459H806.162L804.754 333.789ZM801.075 306.518L801.036 307.184L812.774 299.867L818.173 298.536L818.252 297.206H816.921C809.905 299.815 804.622 302.918 801.075 306.518ZM800.841 343.766L800.802 344.431H803.462L806.827 343.766V343.101H806.162L800.841 343.766ZM810.153 288.559C811.326 289.445 815.056 289.889 821.343 289.889L821.303 290.554H816.647L816.609 291.22C822.165 291.22 825.633 292.55 827.016 295.21L826.938 296.54H823.612L823.572 297.206L828.191 297.871L828.151 298.536H824.16L824.121 299.201C825.451 299.201 826.091 299.645 826.039 300.532C818.134 300.532 811.078 303.414 804.87 309.178L804.831 309.844C813.413 312.139 820.208 317.239 825.216 325.142L825.177 325.808C823.56 331.547 819.035 336.868 811.6 341.771L807.532 342.437L807.492 343.101H808.823C808.769 344.301 804.701 345.631 796.614 347.093L796.694 345.761H800.02L800.097 345.097C797.253 345.097 794.685 343.544 792.39 340.441C790.406 339.424 789.416 337.481 789.416 334.611C789.416 334.351 789.428 334.077 789.455 333.789L791.528 332.459L793.445 333.789H794.776C807.297 331.833 813.752 327.843 814.144 321.817C808.902 319.156 805.432 317.825 803.736 317.825L803.697 318.491L797.163 315.829L797.789 316.495L797.75 317.825C792.22 313.757 789.519 310.654 789.65 308.514L794.855 299.201L798.337 296.54L798.258 297.871L810.153 288.559Z" fill="white"/>
<path d="M861.409 333.711L860.743 337.037V339.032H861.409L862.074 334.376V333.711H861.409ZM858.082 321.073L857.417 325.063V325.729H858.082L858.748 322.403V321.073H858.082ZM856.752 329.055H857.417V326.394H856.752V329.055ZM836.797 296.463H837.463V291.806H836.797V296.463ZM836.132 297.127L835.467 302.449V303.778H836.132L836.797 298.458V297.127H836.132ZM834.803 307.105H835.467V304.444H834.803V307.105ZM834.137 307.77L833.472 311.095V311.76H834.137L834.803 309.101V307.77H834.137ZM832.807 317.081H833.472V314.421H832.807V317.081ZM828.816 337.037H829.481V340.362H828.816V337.037ZM836.132 289.146H836.797V291.141H837.463V289.81H840.124C841.009 289.81 841.454 291.141 841.454 293.802L843.448 294.467C843.448 293.137 843.893 292.471 844.78 292.471L845.445 293.137V293.802L842.118 311.76L852.096 311.095H858.748L859.413 307.77L858.748 307.105H860.078L859.413 302.449V301.784H860.743L860.078 301.118V299.788H861.409V298.458H860.078V297.792H861.409L860.743 297.127V292.471L861.409 293.137H862.074V290.475L861.409 289.81V289.146H863.403L860.078 311.76C860.964 311.76 862.294 304.444 864.069 289.81L866.73 289.146C867.174 292.693 867.838 294.467 868.726 294.467H869.389C869.389 293.137 869.833 292.471 870.72 292.471H871.386C869.168 307.809 865.842 325.768 861.409 346.348H860.743L860.078 345.683L860.743 345.018V339.697H860.078L858.082 346.348H856.086C855.2 346.348 854.757 345.018 854.757 342.358H854.092V345.018H853.427C852.54 345.018 852.096 344.352 852.096 343.024C852.096 339.815 853.427 332.276 856.086 320.407H855.422L846.775 321.073L840.789 320.407C839.458 331.05 838.128 338.146 836.797 341.692H834.803C833.916 341.692 833.472 339.919 833.472 336.372H832.807L832.142 341.028L830.811 339.697V337.701L831.476 337.037V336.372L830.811 335.707H830.146L829.48 336.372H828.816L828.152 333.711C829.924 318.739 831.92 307.874 834.137 301.118H834.803L834.137 300.454V298.458L836.132 291.141H835.467L836.132 289.146Z" fill="white"/>
<path d="M917.124 302.644H918.453V305.97H917.124V302.644ZM913.798 316.613L913.132 318.608V319.938H913.798L914.463 317.278V316.613H913.798ZM909.142 313.951L906.481 320.602H908.476L910.472 315.947L909.808 313.951H909.142ZM905.815 321.268L903.155 324.594H903.821L906.481 321.268H905.815ZM884.531 335.902V336.567L887.857 338.563V337.898L884.531 335.902ZM897.834 300.649L897.17 299.983V300.649L897.834 301.313L893.178 305.306C889.501 305.306 885.952 311.514 882.536 323.929C882.536 327.478 884.53 330.581 888.523 333.242H889.187C894.038 333.242 899.581 328.142 905.815 317.943C908.033 313.091 909.142 309.544 909.142 307.3V301.979C909.142 300.753 906.924 299.866 902.491 299.317H901.825L901.16 299.983H900.495V299.317L897.834 300.649ZM883.202 309.961L881.206 313.951H881.871L883.867 309.961H883.202ZM874.554 324.594H875.219V319.274H874.554V324.594ZM901.16 289.341C906.377 289.341 911.254 290.893 915.793 293.997L915.128 294.662V295.328L917.789 299.317H916.459L915.793 298.654H915.128L917.124 313.286H917.789C917.789 311.07 918.232 309.961 919.119 309.961V312.622C919.119 315.126 916.902 320.89 912.467 329.915H913.132C910.003 334.218 905.347 338.21 899.164 341.888L895.839 342.553H895.174C884.634 342.553 877.983 338.341 875.219 329.915L872.558 325.925L873.223 325.26L872.558 320.602V319.274C872.558 315.595 876.105 309.165 883.202 299.983V300.649C879.94 305.03 877.28 309.909 875.219 315.282V315.947H875.885C877.501 309.453 883.488 301.249 893.843 291.337L889.187 293.997H888.523C888.523 291.963 892.735 290.411 901.16 289.341Z" fill="white"/>
<path d="M934.065 312.778H935.395C941.108 310.378 946.116 306.388 950.421 300.806H948.425C939.53 301.406 935.057 302.736 935.004 304.796L934.065 312.778ZM951.007 303.465C949.598 305.971 943.925 309.739 933.988 314.774L933.323 315.439V316.105H934.653C941.2 314.096 946.873 309.883 951.673 303.465H951.007ZM923.971 317.434L923.931 318.099L924.557 318.765L923.893 319.429L923.815 320.76H925.146L925.301 317.434H923.971ZM928.275 286.837L928.901 287.503V288.168L929.567 287.503H932.892C933.779 287.503 934.196 288.612 934.144 290.827H934.809C934.861 289.497 935.331 288.833 936.218 288.833C937.104 288.833 937.522 289.497 937.47 290.827L942.165 290.163L949.285 291.493L951.946 290.827C955.337 290.827 957.946 292.602 959.772 296.148L959.068 300.806L959.694 301.471V302.136L958.245 306.127H957.581L957.619 304.796H956.954C953.511 313.145 948.659 318.909 942.4 322.091L931.6 326.746L931.248 338.053L931.797 341.38C930.91 341.38 929.723 343.596 928.236 348.031L927.571 348.697H926.905L921.664 346.035L922.523 340.714L920.606 338.053L922.25 328.742L921.585 328.077L924.01 315.439L923.344 314.774L924.05 314.108H925.38L925.301 316.768H925.967L926.084 313.444L925.496 311.448H926.827L926.905 308.122L925.614 306.792L925.535 309.453H924.871C924.975 306.634 923.722 304.419 921.115 302.801L920.567 298.81L920.685 296.148C926.502 293.777 929.422 292.224 929.449 291.493L929.488 290.827L928.197 289.497L927.531 290.163L926.905 287.503L927.61 286.837H928.275Z" fill="white"/>
</svg>
