<svg width="210" height="33" viewBox="0 0 210 33" fill="none" xmlns="http://www.w3.org/2000/svg">
<g clip-path="url(#clip0_6624_22)">
<path d="M21.1362 0.396729V11.2498C20.622 10.5807 20.022 10.059 19.3363 9.67911C18.6506 9.30487 17.8964 9.03269 17.0907 8.85691C16.2793 8.68113 15.4108 8.57906 14.4794 8.5337C13.548 8.49401 12.5537 8.477 11.5024 8.477C9.95957 8.477 8.49678 8.69247 7.10827 9.11775C5.71404 9.54869 4.49695 10.2461 3.43985 11.2101C2.38847 12.1741 1.55422 13.4386 0.931389 15.0036C0.308558 16.5743 0 18.4795 0 20.7306C0 22.9818 0.308558 24.887 0.931389 26.4407C1.55422 27.9944 2.38847 29.2532 3.43985 30.2172C4.49695 31.1811 5.71404 31.8786 7.10827 32.3039C8.49678 32.7348 9.95957 32.9503 11.5024 32.9503C12.5537 32.9503 13.548 32.9163 14.4794 32.8482C15.4108 32.7802 16.2793 32.6327 17.0907 32.4059C17.8964 32.1791 18.6506 31.8616 19.3363 31.459C20.022 31.0564 20.622 30.5234 21.1362 29.8543V32.5477H26.7646V0.396729H21.1362ZM19.1306 25.7149C17.7992 26.7072 15.8736 27.2005 13.3651 27.2005C10.8567 27.2005 8.93676 26.7072 7.6111 25.7149C6.29116 24.7226 5.62833 23.0612 5.62833 20.7306C5.62833 18.4001 6.28545 16.699 7.59396 15.7067C8.90248 14.7201 10.8281 14.2211 13.3651 14.2211C15.9022 14.2211 17.8335 14.7201 19.1535 15.7067C20.4734 16.699 21.1362 18.3774 21.1362 20.7306C21.1362 23.0839 20.4677 24.7226 19.1306 25.7149Z" fill="#DADADA"/>
<path d="M48.4493 8.71514C47.6265 8.55637 46.6322 8.47699 45.4723 8.47699C44.5809 8.47699 43.6095 8.52802 42.5581 8.63576C41.5067 8.7435 40.5068 8.91928 39.5639 9.15743C38.6154 9.40126 37.7812 9.72447 37.0498 10.1214C36.3241 10.524 35.8213 11.023 35.5527 11.6127V8.87959H29.9644V32.5477H35.5527V17.7594C36.1984 16.9542 36.8726 16.3191 37.5755 15.8485C38.2783 15.3835 38.9925 15.0263 39.7239 14.7824C40.4553 14.5443 41.181 14.3912 41.9124 14.3231C42.6381 14.2551 43.3524 14.2211 44.0552 14.2211C45.2437 14.2211 46.3637 14.2721 47.415 14.3628C48.4721 14.4592 49.5635 14.6804 50.6949 15.0263V9.28218C50.0206 9.06671 49.2721 8.87959 48.4493 8.71514V8.71514Z" fill="#DADADA"/>
<path d="M69.0198 26.6165C67.7913 27.1155 66.2085 27.365 64.2658 27.365C63.3458 27.365 62.4716 27.2742 61.6487 27.0985C60.8259 26.9283 60.0945 26.6448 59.4431 26.2592C58.7974 25.868 58.2603 25.352 57.8432 24.7112C57.4261 24.0648 57.1346 23.2766 56.9746 22.341H77.8309C77.8309 19.6363 77.4823 17.3965 76.7967 15.6273C76.1053 13.8582 75.1682 12.4406 73.9796 11.3689C72.7911 10.2972 71.3912 9.54869 69.7684 9.11774C68.1513 8.69246 66.42 8.47699 64.5857 8.47699C62.643 8.47699 60.8488 8.7038 59.2031 9.15743C57.5575 9.61673 56.1461 10.3369 54.969 11.3292C53.7976 12.3215 52.8777 13.5917 52.2148 15.1453C51.552 16.699 51.2263 18.5646 51.2263 20.7306C51.2263 22.8967 51.5634 24.7566 52.2377 26.2989C52.912 27.8356 53.8376 29.1058 55.009 30.0924C56.1861 31.0847 57.5632 31.8105 59.1403 32.2642C60.7173 32.7178 62.4258 32.9503 64.2658 32.9503C67.8828 32.9503 70.8312 32.2245 73.1111 30.7785C75.391 29.3326 76.8538 27.0928 77.5052 24.0648H71.9169C71.214 25.2726 70.2484 26.1232 69.0198 26.6165V26.6165ZM58.1289 15.8882C58.5746 15.3438 59.1117 14.9072 59.746 14.584C60.3802 14.2608 61.1059 14.0339 61.9116 13.9035C62.723 13.7674 63.6029 13.6994 64.5457 13.6994C65.4371 13.6994 66.2714 13.7674 67.0542 13.9035C67.8428 14.0339 68.5399 14.2608 69.1627 14.584C69.7855 14.9072 70.3169 15.3438 70.7626 15.8882C71.2083 16.4382 71.5512 17.13 71.7969 17.9578H57.1346C57.3518 17.13 57.6832 16.4382 58.1289 15.8882Z" fill="#DADADA"/>
<path d="M104.493 14.9242C103.83 13.3875 102.91 12.14 101.721 11.1874C100.533 10.2405 99.1159 9.54869 97.4702 9.11774C95.8189 8.69246 93.9846 8.47699 91.9619 8.47699C90.9619 8.47699 90.042 8.51101 89.2077 8.57906C88.3677 8.64143 87.5735 8.7435 86.8192 8.87959C86.0593 9.01 85.305 9.19146 84.5508 9.41827C83.7965 9.65076 82.9851 9.91159 82.1223 10.2065V15.9505C83.9565 15.2814 85.7221 14.8278 87.4249 14.584C89.1277 14.3401 90.9505 14.2211 92.8933 14.2211C93.5961 14.2211 94.3503 14.2551 95.1617 14.3231C95.9674 14.3912 96.7274 14.5556 97.4302 14.8278C98.1273 15.0943 98.7102 15.5082 99.1673 16.0696C99.6244 16.631 99.8587 17.3965 99.8587 18.3604C98.7216 17.9068 97.5216 17.629 96.2531 17.5382C94.9846 17.4418 93.6361 17.3965 92.2019 17.3965H90.9505C89.4077 17.3965 87.9449 17.5326 86.5564 17.7991C85.1622 18.0656 83.9279 18.5079 82.848 19.1259C81.768 19.7383 80.9109 20.5719 80.2767 21.6152C79.6424 22.6586 79.3281 23.9457 79.3281 25.4711C79.3281 26.8149 79.5281 27.9547 79.9338 28.8903C80.3395 29.8259 80.9166 30.5971 81.6766 31.1981C82.4309 31.8049 83.3565 32.2471 84.4479 32.525C85.545 32.8085 86.7621 32.9503 88.1163 32.9503C90.3791 32.9503 92.4818 32.8028 94.4132 32.508C96.3388 32.2131 98.1559 31.5554 99.8587 30.5347V32.5477H105.487V20.6116C105.487 18.3604 105.156 16.4665 104.493 14.9242V14.9242ZM99.8587 25.834C99.1273 26.2082 98.3387 26.5314 97.4874 26.7979C96.636 27.0701 95.7617 27.2799 94.8589 27.4443C93.9504 27.6031 93.059 27.7165 92.1847 27.7846C91.3048 27.8526 90.4876 27.8866 89.7334 27.8866C88.9791 27.8866 88.3449 27.8583 87.7506 27.8016C87.1564 27.7505 86.6478 27.6371 86.2307 27.4614C85.8136 27.2912 85.4879 27.0191 85.2593 26.6618C85.0307 26.2989 84.9165 25.8113 84.9165 25.1932C84.9165 23.9854 85.5107 23.1349 86.6992 22.6416C87.882 22.1482 89.5334 21.8987 91.6362 21.8987C93.4475 21.8987 95.0189 21.9554 96.356 22.0802C97.6931 22.1993 98.8587 22.4488 99.8587 22.823V25.834V25.834Z" fill="#DADADA"/>
<path d="M149.908 14.0226C149.474 12.6561 148.897 11.5673 148.165 10.7678C147.434 9.96264 146.565 9.40127 145.554 9.07806C144.542 8.75485 143.44 8.55639 142.251 8.477C141.605 8.4203 140.971 8.38061 140.348 8.35792C139.731 8.32957 139.12 8.31256 138.526 8.31256C137.446 8.31256 136.428 8.37493 135.469 8.49401C134.514 8.61876 133.663 8.85125 132.92 9.19714C132.177 9.5487 131.554 10.008 131.057 10.5864C130.554 11.1648 130.229 11.9189 130.063 12.8545C129.794 11.9699 129.48 11.2555 129.115 10.7055C128.749 10.1554 128.337 9.72448 127.88 9.40127C127.417 9.07806 126.897 8.85125 126.32 8.71516C125.738 8.58474 125.086 8.50535 124.355 8.477C123.812 8.44865 123.315 8.43164 122.858 8.41463C122.401 8.40329 121.955 8.39762 121.521 8.39762C120.361 8.39762 119.383 8.45432 118.584 8.57907C117.789 8.69815 117.121 8.88527 116.578 9.14043C116.041 9.3956 115.595 9.71314 115.247 10.1044C114.892 10.49 114.584 10.9663 114.315 11.5277V8.477H108.727V32.5477H114.315V18.6043C114.395 18.0939 114.475 17.5836 114.555 17.0733C114.635 16.5686 114.852 16.1093 115.207 15.7067C115.555 15.3098 116.098 14.9809 116.846 14.7257C117.584 14.4706 118.669 14.3402 120.103 14.3402H121.155C121.532 14.3402 121.926 14.3685 122.332 14.4252C124.058 14.5556 125.275 15.2361 125.978 16.4552C126.675 17.6743 127.029 19.5399 127.029 22.0575V32.5477H132.617L132.697 19.2847C132.697 18.1053 132.886 17.198 133.263 16.5516C133.64 15.9108 134.143 15.4289 134.76 15.1057C135.383 14.7824 136.08 14.5897 136.846 14.5216C137.617 14.4592 138.406 14.4252 139.217 14.4252H140.188C141.188 14.4252 141.994 14.584 142.617 14.9072C143.24 15.2247 143.72 15.7067 144.057 16.3531C144.394 16.9939 144.617 17.7934 144.725 18.7404C144.834 19.693 144.885 20.7987 144.885 22.0575V32.5477H150.514L150.554 19.2847C150.554 17.1413 150.336 15.3892 149.908 14.0226V14.0226Z" fill="#DADADA"/>
<path d="M163.49 5.86297C163.805 5.56811 164.222 5.36398 164.747 5.23923C165.273 5.12015 165.942 5.05778 166.753 5.05778H192.78L197.432 -0.000183105H164.97C162.136 -0.000183105 160.09 0.572523 158.833 1.72361C157.582 2.87469 156.953 4.6722 156.953 7.11045V8.8796H149.988C150.257 9.08941 150.514 9.32189 150.754 9.5884C151.485 10.3879 152.062 11.4766 152.497 12.8432C152.662 13.3762 152.799 13.9716 152.902 14.6237H156.953V32.5477H162.622V14.6237H173.644L168.387 8.8796H162.622C162.65 8.12545 162.725 7.51305 162.845 7.03107C162.965 6.54908 163.182 6.15783 163.49 5.86297V5.86297Z" fill="#DADADA"/>
<path d="M209.842 -0.000183105H202.311L186.878 16.716L185.735 15.4516L179.792 8.8796H172.261L183.112 20.7307L172.261 32.5477H179.792L185.735 25.9757L186.878 24.7113L193.963 32.5477H201.494L190.603 20.7307L209.842 -0.000183105Z" fill="#DADADA"/>
</g>
<defs>
<clipPath id="clip0_6624_22">
<rect width="209.842" height="32.9505" fill="white"/>
</clipPath>
</defs>
</svg>
