<svg width="70" height="65" viewBox="0 0 70 65" fill="none" xmlns="http://www.w3.org/2000/svg">
<g clip-path="url(#clip0_147_218)">
<g clip-path="url(#clip1_147_218)">
<path d="M54.1992 64.5C53.9995 64.5 53.808 64.4207 53.6668 64.2795C53.5256 64.1383 53.4463 63.9468 53.4463 63.7471V1.25294C53.4463 1.05325 53.5256 0.861735 53.6668 0.720531C53.808 0.579328 53.9995 0.5 54.1992 0.5C54.3989 0.5 54.5904 0.579328 54.7316 0.720531C54.8728 0.861735 54.9522 1.05325 54.9522 1.25294V63.7471C54.9522 63.9468 54.8728 64.1383 54.7316 64.2795C54.5904 64.4207 54.3989 64.5 54.1992 64.5Z" fill="#C6AC73"/>
<path d="M58.073 64.4736H52.0494C50.7777 64.4723 49.5584 63.9666 48.659 63.0675C47.7596 62.1683 47.2536 60.9492 47.252 59.6774V5.29875C47.253 4.02591 47.7592 2.80553 48.6595 1.90573C49.5597 1.00594 50.7804 0.500332 52.0532 0.5H58.0767C58.2764 0.5 58.4679 0.579327 58.6091 0.720531C58.7503 0.861735 58.8297 1.05325 58.8297 1.25294V63.7207C58.8297 63.9204 58.7503 64.1119 58.6091 64.2531C58.4679 64.3943 58.2764 64.4736 58.0767 64.4736H58.073ZM52.0532 2.00588C51.1805 2.00688 50.3439 2.35399 49.7268 2.97107C49.1097 3.58815 48.7626 4.42481 48.7616 5.29749V59.6774C48.7629 60.5499 49.1102 61.3862 49.7272 62.003C50.3443 62.6198 51.1807 62.9668 52.0532 62.9678H57.3238V2.00588H52.0532Z" fill="#C6AC73"/>
<path d="M66.2599 2.00588H57.9776C57.7779 2.00588 57.5863 1.92655 57.4451 1.78535C57.3039 1.64415 57.2246 1.45263 57.2246 1.25294C57.2246 1.05325 57.3039 0.861735 57.4451 0.720531C57.5863 0.579328 57.7779 0.5 57.9776 0.5H66.2599C66.4596 0.5 66.6511 0.579328 66.7923 0.720531C66.9335 0.861735 67.0128 1.05325 67.0128 1.25294C67.0128 1.45263 66.9335 1.64415 66.7923 1.78535C66.6511 1.92655 66.4596 2.00588 66.2599 2.00588Z" fill="#C6AC73"/>
<path d="M66.2599 9.53518H57.9776C57.7779 9.53518 57.5863 9.45585 57.4451 9.31465C57.3039 9.17344 57.2246 8.98193 57.2246 8.78224C57.2246 8.58255 57.3039 8.39103 57.4451 8.24983C57.5863 8.10862 57.7779 8.0293 57.9776 8.0293H66.2599C66.4596 8.0293 66.6511 8.10862 66.7923 8.24983C66.9335 8.39103 67.0128 8.58255 67.0128 8.78224C67.0128 8.98193 66.9335 9.17344 66.7923 9.31465C66.6511 9.45585 66.4596 9.53518 66.2599 9.53518Z" fill="#C6AC73"/>
<path d="M66.2599 18.0686H57.9776C57.7779 18.0686 57.5863 17.9893 57.4451 17.8481C57.3039 17.7069 57.2246 17.5154 57.2246 17.3157C57.2246 17.116 57.3039 16.9245 57.4451 16.7833C57.5863 16.6421 57.7779 16.5627 57.9776 16.5627H66.2599C66.4596 16.5627 66.6511 16.6421 66.7923 16.7833C66.9335 16.9245 67.0128 17.116 67.0128 17.3157C67.0128 17.5154 66.9335 17.7069 66.7923 17.8481C66.6511 17.9893 66.4596 18.0686 66.2599 18.0686Z" fill="#C6AC73"/>
<path d="M66.2599 26.7276H57.9776C57.7779 26.7276 57.5863 26.6482 57.4451 26.507C57.3039 26.3658 57.2246 26.1743 57.2246 25.9746C57.2246 25.7749 57.3039 25.5834 57.4451 25.4422C57.5863 25.301 57.7779 25.2217 57.9776 25.2217H66.2599C66.4596 25.2217 66.6511 25.301 66.7923 25.4422C66.9335 25.5834 67.0128 25.7749 67.0128 25.9746C67.0128 26.1743 66.9335 26.3658 66.7923 26.507C66.6511 26.6482 66.4596 26.7276 66.2599 26.7276Z" fill="#C6AC73"/>
<path d="M66.2599 35.2608H57.9776C57.7779 35.2608 57.5863 35.1814 57.4451 35.0402C57.3039 34.899 57.2246 34.7075 57.2246 34.5078C57.2246 34.3081 57.3039 34.1166 57.4451 33.9754C57.5863 33.8342 57.7779 33.7549 57.9776 33.7549H66.2599C66.4596 33.7549 66.6511 33.8342 66.7923 33.9754C66.9335 34.1166 67.0128 34.3081 67.0128 34.5078C67.0128 34.7075 66.9335 34.899 66.7923 35.0402C66.6511 35.1814 66.4596 35.2608 66.2599 35.2608Z" fill="#C6AC73"/>
<path d="M66.2599 43.9197H57.9776C57.7779 43.9197 57.5863 43.8404 57.4451 43.6992C57.3039 43.558 57.2246 43.3665 57.2246 43.1668C57.2246 42.9671 57.3039 42.7756 57.4451 42.6343C57.5863 42.4931 57.7779 42.4138 57.9776 42.4138H66.2599C66.4596 42.4138 66.6511 42.4931 66.7923 42.6343C66.9335 42.7756 67.0128 42.9671 67.0128 43.1668C67.0128 43.3665 66.9335 43.558 66.7923 43.6992C66.6511 43.8404 66.4596 43.9197 66.2599 43.9197Z" fill="#C6AC73"/>
<path d="M66.2599 52.4529H57.9776C57.7779 52.4529 57.5863 52.3736 57.4451 52.2324C57.3039 52.0912 57.2246 51.8997 57.2246 51.7C57.2246 51.5003 57.3039 51.3088 57.4451 51.1676C57.5863 51.0263 57.7779 50.947 57.9776 50.947H66.2599C66.4596 50.947 66.6511 51.0263 66.7923 51.1676C66.9335 51.3088 67.0128 51.5003 67.0128 51.7C67.0128 51.8997 66.9335 52.0912 66.7923 52.2324C66.6511 52.3736 66.4596 52.4529 66.2599 52.4529Z" fill="#C6AC73"/>
<path d="M66.2599 58.4766H57.9776C57.7779 58.4766 57.5863 58.3973 57.4451 58.2561C57.3039 58.1149 57.2246 57.9233 57.2246 57.7236C57.2246 57.524 57.3039 57.3324 57.4451 57.1912C57.5863 57.05 57.7779 56.9707 57.9776 56.9707H66.2599C66.4596 56.9707 66.6511 57.05 66.7923 57.1912C66.9335 57.3324 67.0128 57.524 67.0128 57.7236C67.0128 57.9233 66.9335 58.1149 66.7923 58.2561C66.6511 58.3973 66.4596 58.4766 66.2599 58.4766Z" fill="#C6AC73"/>
<path d="M66.2599 64.5H57.9776C57.7779 64.5 57.5863 64.4207 57.4451 64.2795C57.3039 64.1383 57.2246 63.9468 57.2246 63.7471C57.2246 63.5474 57.3039 63.3559 57.4451 63.2147C57.5863 63.0735 57.7779 62.9941 57.9776 62.9941H66.2599C66.4596 62.9941 66.6511 63.0735 66.7923 63.2147C66.9335 63.3559 67.0128 63.5474 67.0128 63.7471C67.0128 63.9468 66.9335 64.1383 66.7923 64.2795C66.6511 64.4207 66.4596 64.5 66.2599 64.5Z" fill="#C6AC73"/>
<path d="M20.0659 39.2764C19.9225 39.2763 19.782 39.2354 19.6611 39.1582C19.5401 39.0811 19.4438 38.971 19.3833 38.8409L14.4289 28.2031C13.1225 25.3966 12.3818 22.3601 12.2492 19.2673C12.1165 16.1744 12.5946 13.0858 13.6559 10.1777C13.7069 10.0377 13.7984 9.91598 13.9186 9.82797C14.0389 9.73996 14.1825 9.68961 14.3314 9.68329C14.4803 9.67698 14.6277 9.71498 14.7549 9.79249C14.8822 9.87 14.9836 9.98353 15.0463 10.1187L24.4292 30.2775C24.5136 30.4585 24.5226 30.6657 24.4542 30.8533C24.3859 31.041 24.2457 31.1939 24.0647 31.2782C23.8836 31.3626 23.6765 31.3716 23.4888 31.3032C23.3011 31.2349 23.1483 31.0947 23.0639 30.9137L14.4942 12.5043C13.1272 17.5213 13.5898 22.861 15.7993 27.5681L20.7473 38.1984C20.8024 38.3133 20.8273 38.4404 20.8198 38.5676C20.8123 38.6948 20.7727 38.818 20.7046 38.9257C20.6365 39.0334 20.5422 39.1221 20.4305 39.1834C20.3188 39.2448 20.1934 39.2767 20.0659 39.2764Z" fill="#C6AC73"/>
<path d="M32.6939 50.5707C32.5503 50.5709 32.4095 50.53 32.2884 50.4529C32.1672 50.3757 32.0706 50.2655 32.01 50.1352L26.7482 38.8298C26.6638 38.6488 26.6549 38.4416 26.7232 38.2539C26.7916 38.0662 26.9317 37.9134 27.1128 37.829C27.2938 37.7447 27.501 37.7357 27.6887 37.804C27.8763 37.8724 28.0292 38.0125 28.1136 38.1936L33.3754 49.5002C33.4287 49.6149 33.4522 49.7411 33.4439 49.8672C33.4356 49.9934 33.3957 50.1154 33.3278 50.2221C33.2599 50.3287 33.1662 50.4165 33.0555 50.4775C32.9447 50.5384 32.8204 50.5705 32.6939 50.5707Z" fill="#C6AC73"/>
<path d="M29.1728 58.8528C29.0291 58.853 28.8884 58.8122 28.7672 58.735C28.646 58.6578 28.5494 58.5476 28.4889 58.4174L23.0627 46.7568C22.9783 46.5758 22.9693 46.3686 23.0377 46.1809C23.106 45.9932 23.2462 45.8404 23.4272 45.756C23.6083 45.6717 23.8154 45.6627 24.0031 45.731C24.1908 45.7994 24.3436 45.9395 24.428 46.1206L29.8542 57.7774C29.8965 57.8671 29.9207 57.9644 29.9253 58.0635C29.9299 58.1626 29.9148 58.2617 29.881 58.355C29.8472 58.4483 29.7952 58.534 29.7282 58.6071C29.6611 58.6803 29.5803 58.7395 29.4903 58.7813C29.3911 58.8285 29.2826 58.853 29.1728 58.8528Z" fill="#C6AC73"/>
<path d="M36.4032 60.9711C35.2281 60.9736 34.0934 60.5421 33.2169 59.7593C32.3404 58.9766 31.7837 57.8978 31.6538 56.7299C31.5238 55.5619 31.8297 54.3871 32.5127 53.4309C33.1957 52.4746 34.2077 51.8042 35.3547 51.5483C36.5016 51.2924 37.7027 51.469 38.7274 52.0442C39.7521 52.6194 40.5284 53.5528 40.9072 54.6652C41.286 55.7776 41.2408 56.9907 40.7801 58.0718C40.3195 59.1529 39.4758 60.0258 38.4111 60.5231C37.7824 60.8167 37.0972 60.9696 36.4032 60.9711ZM36.4032 52.946C35.6971 52.9458 35.0099 53.1747 34.4449 53.5983C33.8799 54.0219 33.4676 54.6174 33.2699 55.2954C33.0722 55.9733 33.0998 56.6971 33.3485 57.358C33.5973 58.0189 34.0537 58.5813 34.6494 58.9607C35.245 59.34 35.9476 59.5159 36.6517 59.4619C37.3558 59.4079 38.0234 59.1269 38.5542 58.6612C39.085 58.1954 39.4503 57.57 39.5954 56.8789C39.7404 56.1877 39.6573 55.4682 39.3585 54.8283C39.0961 54.2662 38.6787 53.7905 38.1555 53.4571C37.6323 53.1237 37.0249 52.9464 36.4045 52.946H36.4032Z" fill="#C6AC73"/>
<path d="M36.4136 64.3092C34.4162 64.3102 32.4887 63.5736 31.0011 62.2406C29.5135 60.9076 28.5706 59.0723 28.3533 57.0867C28.136 55.1011 28.6596 53.1052 29.8237 51.4821C30.9877 49.8589 32.7102 48.7228 34.6606 48.2918C36.6109 47.8608 38.6518 48.1652 40.3914 49.1467C42.1311 50.1281 43.447 51.7175 44.0867 53.6097C44.7264 55.5019 44.6447 57.5637 43.8574 59.3995C43.07 61.2352 41.6325 62.7154 39.8207 63.5562C38.753 64.0513 37.5905 64.3083 36.4136 64.3092ZM36.3973 49.603C34.7429 49.601 33.1479 50.219 31.9268 51.3351C30.7056 52.4512 29.9471 53.9844 29.8007 55.6323C29.6543 57.2801 30.1307 58.923 31.136 60.2369C32.1412 61.5508 33.6024 62.4403 35.2312 62.73C36.8599 63.0196 38.5382 62.6884 39.9348 61.8017C41.3314 60.9149 42.345 59.537 42.7758 57.9397C43.2065 56.3424 43.0231 54.6417 42.2616 53.173C41.5001 51.7043 40.216 50.5743 38.6624 50.0058C37.9369 49.7394 37.1701 49.603 36.3973 49.603Z" fill="#C6AC73"/>
<path d="M18.4031 58.853C18.2766 58.853 18.1521 58.8211 18.0412 58.7603C17.9302 58.6994 17.8364 58.6116 17.7684 58.5049C17.7003 58.3982 17.6603 58.2761 17.6519 58.1499C17.6435 58.0236 17.6671 57.8973 17.7205 57.7826L31.7754 27.5721C33.9822 22.8658 34.4431 17.5281 33.0754 12.5132L15.5645 50.1415C15.5236 50.2323 15.4651 50.3142 15.3923 50.3823C15.3195 50.4504 15.2339 50.5033 15.1405 50.5381C15.0471 50.5728 14.9478 50.5887 14.8482 50.5848C14.7486 50.5808 14.6508 50.5572 14.5604 50.5151C14.4701 50.4731 14.3889 50.4136 14.3218 50.3399C14.2546 50.2663 14.2027 50.1801 14.1691 50.0863C14.1355 49.9925 14.1208 49.8929 14.126 49.7934C14.1312 49.6938 14.1561 49.5963 14.1992 49.5065L32.5296 10.1214C32.5923 9.98622 32.6937 9.87269 32.8209 9.79518C32.9482 9.71767 33.0956 9.67966 33.2445 9.68598C33.3934 9.69229 33.537 9.74264 33.6573 9.83065C33.7775 9.91866 33.8689 10.0404 33.92 10.1804C34.9808 13.0884 35.4584 16.1769 35.3255 19.2695C35.1927 22.3621 34.452 25.3982 33.1457 28.2045L19.0908 58.415C19.0302 58.5453 18.9336 58.6555 18.8125 58.7327C18.6913 58.8098 18.5505 58.8507 18.4069 58.8505L18.4031 58.853Z" fill="#C6AC73"/>
<path d="M11.082 60.9674C10.2814 60.9668 9.49386 60.7644 8.79222 60.3788C8.09057 59.9933 7.49744 59.4371 7.06766 58.7617C6.63788 58.0862 6.38531 57.3133 6.3333 56.5144C6.2813 55.7155 6.43153 54.9164 6.77012 54.1909C7.13039 53.4149 7.69284 52.75 8.39849 52.2661C9.10414 51.7822 9.92699 51.497 10.7808 51.4406C11.6345 51.3841 12.4878 51.5584 13.251 51.9452C14.0142 52.3319 14.6593 52.9169 15.1187 53.6388C15.578 54.3607 15.8346 55.1929 15.8617 56.0481C15.8887 56.9033 15.6852 57.75 15.2723 58.4995C14.8595 59.249 14.2527 59.8736 13.5154 60.3078C12.7781 60.742 11.9376 60.9698 11.082 60.9674ZM8.13545 54.8372C7.86205 55.4222 7.76838 56.0752 7.8663 56.7135C7.96423 57.3517 8.24935 57.9466 8.68556 58.4227C9.12177 58.8989 9.68946 59.2348 10.3167 59.3881C10.944 59.5414 11.6027 59.5052 12.2093 59.2839C12.816 59.0626 13.3433 58.6663 13.7246 58.1451C14.1059 57.624 14.3239 57.0014 14.3512 56.3562C14.3784 55.7111 14.2136 55.0723 13.8775 54.5209C13.5415 53.9695 13.0495 53.5301 12.4636 53.2586C11.6801 52.8953 10.7846 52.8575 9.97329 53.1535C9.16199 53.4494 8.5011 54.0549 8.13545 54.8372Z" fill="#C6AC73"/>
<path d="M11.0769 64.3091C9.32388 64.307 7.6188 63.7364 6.2175 62.683C4.8162 61.6296 3.79425 60.1503 3.30496 58.4669C2.81568 56.7835 2.88544 54.9868 3.50379 53.3465C4.12214 51.7061 5.25573 50.3104 6.73449 49.3689C8.21325 48.4274 9.95744 47.9907 11.7054 48.1245C13.4533 48.2582 15.1108 48.9551 16.4291 50.1107C17.7474 51.2663 18.6554 52.8181 19.017 54.5335C19.3785 56.2489 19.1741 58.0352 18.4344 59.6246C17.7883 61.0302 16.7505 62.2196 15.4456 63.0505C14.1407 63.8813 12.6239 64.3183 11.0769 64.3091ZM11.0933 49.6029C9.46529 49.5994 7.89336 50.1972 6.67907 51.2815C5.46477 52.3658 4.69364 53.8603 4.51363 55.4783C4.33362 57.0963 4.75741 58.7238 5.70369 60.0484C6.64996 61.3731 8.05207 62.3018 9.641 62.6561C11.2299 63.0105 12.8937 62.7657 14.3132 61.9686C15.7327 61.1715 16.8079 59.8784 17.3324 58.3372C17.857 56.7961 17.794 55.1155 17.1555 53.618C16.517 52.1204 15.348 50.9114 13.8729 50.2229C13.0023 49.817 12.0538 49.6055 11.0933 49.6029Z" fill="#C6AC73"/>
<path d="M24.0664 39.3607C23.8668 39.3605 23.6754 39.281 23.5343 39.1398L22.8906 38.496C22.8206 38.4261 22.7651 38.343 22.7273 38.2516C22.6894 38.1602 22.6699 38.0623 22.6699 37.9633C22.6699 37.8644 22.6894 37.7664 22.7273 37.675C22.7651 37.5836 22.8206 37.5006 22.8906 37.4306C22.9605 37.3607 23.0436 37.3052 23.135 37.2673C23.2264 37.2294 23.3243 37.21 23.4233 37.21C23.5222 37.21 23.6202 37.2294 23.7116 37.2673C23.803 37.3052 23.886 37.3607 23.956 37.4306L24.5998 38.0756C24.705 38.181 24.7766 38.3152 24.8056 38.4613C24.8345 38.6074 24.8195 38.7588 24.7624 38.8963C24.7053 39.0339 24.6087 39.1514 24.4849 39.2341C24.361 39.3167 24.2153 39.3608 24.0664 39.3607Z" fill="#C6AC73"/>
</g>
</g>
<defs>
<clipPath id="clip0_147_218">
<rect width="64.0289" height="64" fill="white" transform="translate(2.98535 0.5)"/>
</clipPath>
<clipPath id="clip1_147_218">
<rect width="64.0289" height="64" fill="white" transform="translate(2.98535 0.5)"/>
</clipPath>
</defs>
</svg>
